<svg width="340" height="54" viewBox="0 0 340 54" fill="none" xmlns="http://www.w3.org/2000/svg">
<path d="M43.0559 1.94399C43.3439 5.68799 43.7759 10.152 44.2079 13.896C44.2799 14.4 44.0639 14.616 43.4879 14.76C42.8399 14.904 42.6239 14.76 42.3359 14.256C40.6799 10.584 38.8079 7.70399 36.2159 5.61599C33.4799 3.59999 29.8079 2.51999 26.5679 2.51999C15.8399 2.51999 7.9919 12.096 7.9919 26.784C7.9919 39.816 15.9839 49.824 27.0719 49.824C35.2799 49.824 40.6079 46.512 44.7839 39.888C45.0719 39.528 45.3599 39.384 46.2239 39.816C46.8719 40.104 47.0159 40.536 46.7279 41.112C42.6239 48.528 36.4319 53.928 26.0639 53.928C10.9439 53.928 -9.76026e-05 42.912 -9.76026e-05 26.928C-9.76026e-05 11.304 11.0159 0.0719886 26.2799 0.0719886C29.5919 0.0719886 32.3999 0.503992 35.0639 1.15199C37.7999 2.01599 39.8879 2.37599 43.0559 1.94399ZM78.3196 -1.04904e-05C93.7276 -1.04904e-05 105.032 11.088 105.032 26.784C105.032 42.48 93.7276 53.928 78.3196 53.928C62.9116 53.928 51.6796 42.48 51.6796 26.928C51.6796 11.376 62.9116 -1.04904e-05 78.3196 -1.04904e-05ZM78.3196 2.44799C67.3036 2.44799 59.5996 12.24 59.5996 26.784C59.5996 41.76 67.1596 51.408 78.3196 51.408C89.4076 51.408 97.0396 41.76 97.0396 27C97.0396 12.096 89.2636 2.44799 78.3196 2.44799ZM125.395 14.112V39.672C125.395 42.768 125.323 46.656 126.403 48.312C127.555 50.184 130.147 50.256 133.387 50.256C140.587 50.256 143.683 48.816 145.915 47.232C148.147 45.648 149.875 42.624 151.315 40.032C151.531 39.528 151.675 39.384 152.467 39.6C153.259 39.888 153.331 40.176 153.187 40.608C152.323 44.352 150.883 49.104 149.443 52.776C143.179 52.56 137.059 52.488 131.227 52.488C125.179 52.488 118.555 52.56 112.435 52.776C112.003 52.776 111.859 52.56 111.859 51.84C111.859 51.12 112.003 50.976 112.435 50.904C114.955 50.616 116.899 50.544 117.763 49.176C118.699 47.592 118.627 44.424 118.627 39.672V14.112C118.627 7.27199 118.627 6.40799 117.835 4.89599C117.043 3.52799 115.027 3.45599 112.291 3.16799C111.787 3.09599 111.643 3.02399 111.643 2.30399C111.643 1.36799 111.787 1.15199 112.291 1.15199C115.243 1.36799 118.915 1.58399 121.939 1.58399C124.819 1.58399 128.563 1.36799 131.443 1.15199C132.019 1.15199 132.163 1.36799 132.163 2.30399C132.163 3.02399 132.019 3.09599 131.443 3.16799C128.995 3.45599 127.051 3.52799 126.259 4.89599C125.395 6.47999 125.395 9.71999 125.395 14.112ZM201.102 22.968L200.958 14.04C200.886 9.93599 200.598 6.69599 199.734 5.18399C198.942 3.74399 196.71 3.45599 194.19 3.16799C193.686 3.09599 193.614 3.02399 193.614 2.23199C193.614 1.29599 193.686 1.15199 194.19 1.15199C197.07 1.29599 200.022 1.51199 202.614 1.51199C205.134 1.51199 208.086 1.29599 210.75 1.15199C211.254 1.15199 211.398 1.29599 211.398 2.23199C211.398 3.02399 211.254 3.09599 210.75 3.16799C208.374 3.45599 206.718 3.81599 205.782 5.25599C204.774 6.91199 204.414 10.08 204.342 14.04L204.27 22.968C204.198 27.504 204.126 31.968 204.126 36.144C204.126 41.76 202.254 46.296 198.654 49.32C195.198 52.272 191.094 53.928 185.19 53.928C177.846 53.928 172.59 51.696 168.99 48.312C166.038 45.504 164.742 42.12 164.742 37.224C164.742 32.976 164.886 27.936 164.886 23.256V14.04C164.886 7.34399 164.886 6.47999 164.094 4.96799C163.23 3.52799 161.214 3.45599 158.478 3.16799C157.974 3.09599 157.83 3.02399 157.83 2.23199C157.83 1.29599 157.974 1.15199 158.478 1.15199C161.43 1.36799 165.174 1.51199 168.054 1.51199C171.078 1.51199 174.822 1.36799 177.702 1.15199C178.206 1.15199 178.35 1.29599 178.35 2.23199C178.35 3.02399 178.206 3.09599 177.702 3.16799C175.182 3.45599 173.238 3.45599 172.446 4.96799C171.582 6.55199 171.582 9.71999 171.582 14.04V23.4C171.582 26.496 171.51 29.808 171.51 32.904C171.51 39.168 171.87 43.056 175.038 45.936C177.846 48.744 182.238 49.896 185.766 49.896C190.662 49.896 194.55 48.888 197.502 45.864C199.95 43.488 201.102 40.176 201.102 34.776C201.102 31.248 201.174 27.648 201.102 22.968ZM252.907 33.264L262.051 10.584C263.275 7.63199 264.283 4.82399 265.363 1.36799C267.811 1.51199 269.755 1.51199 271.987 1.51199C274.219 1.51199 277.459 1.36799 279.763 1.15199C280.339 1.15199 280.483 1.36799 280.483 2.23199C280.483 2.95199 280.339 3.09599 279.763 3.16799C277.027 3.45599 275.371 3.45599 274.435 4.89599C273.427 6.55199 273.427 9.71999 273.499 14.112L273.787 39.672C273.931 46.8 274.003 47.664 274.867 49.176C275.659 50.544 277.675 50.616 280.411 50.904C280.915 50.976 281.131 51.12 281.131 51.84C281.131 52.56 280.915 52.776 280.411 52.776C277.315 52.56 273.283 52.488 270.475 52.488C267.523 52.488 263.995 52.56 261.115 52.776C260.755 52.776 260.611 52.56 260.611 51.84C260.611 51.12 260.755 50.976 261.115 50.904C263.707 50.616 265.579 50.616 266.371 49.176C267.307 47.592 267.307 44.424 267.235 39.672L267.019 8.85599H266.227L255.427 34.128C252.115 41.76 250.171 46.512 247.939 51.912C247.795 52.488 247.651 52.776 246.715 52.776C245.995 52.776 245.923 52.488 245.707 51.912C243.403 46.296 241.531 41.688 238.867 35.496L227.419 8.85599H226.555L226.411 39.672C226.411 43.92 226.627 47.592 227.563 49.032C228.355 50.4 230.731 50.616 232.891 50.904C233.539 50.976 233.611 51.12 233.611 51.84C233.611 52.56 233.467 52.776 232.891 52.776C230.227 52.56 227.563 52.488 224.899 52.488C222.235 52.488 219.211 52.56 216.691 52.776C216.187 52.776 216.043 52.56 216.043 51.84C216.043 51.12 216.187 50.976 216.691 50.904C218.635 50.616 220.651 50.472 221.515 48.96C222.595 47.376 222.955 44.136 223.099 39.672L223.675 14.112C223.819 9.50399 223.819 6.47999 222.883 4.89599C221.875 3.52799 219.643 3.45599 217.195 3.16799C216.691 3.09599 216.547 3.02399 216.547 2.23199C216.547 1.36799 216.835 1.15199 217.195 1.15199C219.931 1.36799 223.027 1.51199 225.115 1.51199C227.419 1.51199 229.147 1.51199 231.955 1.36799C232.819 4.24799 233.755 6.83999 234.907 9.57599L244.843 33.192C246.355 36.648 247.435 39.312 248.875 42.912C250.387 39.456 251.251 37.008 252.907 33.264ZM297.378 8.78399H296.514L296.802 39.744C296.874 44.28 297.162 47.592 298.098 49.032C299.034 50.472 301.194 50.688 303.57 50.976C304.074 50.976 304.146 51.12 304.146 51.84C304.146 52.56 304.002 52.704 303.57 52.704C300.69 52.56 297.882 52.488 295.29 52.488C292.626 52.488 289.386 52.56 286.938 52.704C286.362 52.704 286.218 52.56 286.218 51.912C286.218 51.192 286.362 51.048 286.866 50.976C289.026 50.688 290.898 50.472 291.834 48.96C292.842 47.376 293.202 44.136 293.274 39.744L293.706 14.04C293.778 9.50399 293.49 6.69599 292.554 5.32799C291.618 4.03199 289.242 3.52799 286.65 3.23999C286.074 3.16799 285.93 3.02399 285.93 2.30399C285.93 1.36799 286.074 1.15199 286.65 1.15199C289.098 1.22399 291.762 1.36799 293.562 1.36799C295.506 1.36799 297.306 1.36799 300.762 1.29599C302.346 4.17599 303.642 6.11999 306.306 10.008L322.722 34.056C325.17 37.584 327.186 40.608 329.418 44.136V35.208L329.346 14.04C329.346 9.93599 328.842 6.55199 327.906 5.03999C327.042 3.59999 324.882 3.45599 322.578 3.16799C322.002 3.09599 321.858 3.02399 321.858 2.23199C321.858 1.29599 322.002 1.15199 322.506 1.15199C325.17 1.29599 328.05 1.43999 330.642 1.43999C333.306 1.43999 336.474 1.29599 338.778 1.15199C339.354 1.15199 339.498 1.29599 339.498 2.23199C339.498 2.95199 339.354 3.09599 338.778 3.16799C336.618 3.45599 334.818 3.59999 333.954 5.03999C333.018 6.62399 332.658 10.008 332.586 14.04L332.154 39.744C332.082 44.568 332.154 48.096 332.298 51.912C328.77 53.856 328.626 53.928 328.41 53.928C328.194 53.928 327.978 53.784 327.834 53.568C325.602 49.896 323.946 47.448 319.626 41.184L297.378 8.78399Z" fill="#00168B"/>
</svg>
