<svg width="265" height="35" viewBox="0 0 265 35" fill="none" xmlns="http://www.w3.org/2000/svg">
<path fill-rule="evenodd" clip-rule="evenodd" d="M245.376 27.0148V28.9635H233.798V27.0187L234.861 26.976H234.861C235.975 26.9375 236.793 26.7063 237.331 26.2965C237.863 25.8908 238.133 25.3006 238.133 24.51V3.52697C238.085 3.26542 237.929 3.04412 237.647 2.86356C237.361 2.68031 236.95 2.54127 236.405 2.4516H233.798V0.50293H241.104L257.757 20.2727V5.0731C257.757 4.18665 257.493 3.53831 256.98 3.10877C256.463 2.67637 255.678 2.4516 254.605 2.4516H253.422V0.50293H265V2.49047H263.894C262.808 2.49047 262.013 2.7122 261.489 3.13875C260.97 3.56208 260.704 4.2005 260.704 5.0731V30.3028L241.08 6.93967V24.51C241.08 25.354 241.358 25.9724 241.901 26.3837C242.451 26.7991 243.287 27.0148 244.425 27.0148H245.376Z" fill="white"/>
<path fill-rule="evenodd" clip-rule="evenodd" d="M140.858 26.4186C141.233 26.0921 141.492 25.7178 141.641 25.2956L150.644 0H154.268L163.271 25.2958C163.447 25.8003 163.705 26.1923 164.044 26.4768C164.381 26.7599 164.803 26.9411 165.313 27.0173H167.534V28.9659H155.802V27.0173H158.223C158.748 27.0173 159.082 26.8672 159.263 26.5951L159.266 26.5906C159.493 26.2863 159.595 26.0356 159.595 25.8341V25.3462L157.147 18.5478H146.45L144.079 25.3457V25.7952C144.079 26.0194 144.19 26.268 144.438 26.5427C144.677 26.7811 145.014 26.9416 145.459 27.0173H147.872V28.9659H137.572V27.0173H139.598C140.039 26.9417 140.459 26.7435 140.858 26.4186ZM156.597 16.621H147.076L151.837 3.20959L156.597 16.621Z" fill="white"/>
<path fill-rule="evenodd" clip-rule="evenodd" d="M175.13 2.1431H172.522V0.155273L186.672 0.194425C189.528 0.194425 191.762 0.977258 193.359 2.55518C194.98 4.13043 195.789 6.13952 195.789 8.57421C195.789 11.1106 194.988 13.0283 193.371 14.3086C191.759 15.5853 189.352 16.2154 186.168 16.2154H180.733V25.9003C180.819 26.2617 180.998 26.5263 181.268 26.7031C181.543 26.8833 181.922 26.9785 182.414 26.9785H185.029V28.9271H172.522V26.9798L175.362 26.9396C176.041 26.8405 176.537 26.4915 176.857 25.8873V3.80156C176.782 3.38672 176.588 3.03323 176.27 2.73864L176.267 2.73594L176.264 2.73301C175.972 2.41578 175.596 2.21859 175.13 2.1431ZM190.075 12.7995C191.011 11.853 191.488 10.4249 191.488 8.49646C191.488 6.56068 191.189 5.08415 190.601 4.05615C190.016 3.03385 189.144 2.44942 187.975 2.29782C187.129 2.19483 186.076 2.1431 184.813 2.1431C183.579 2.1431 182.655 2.16889 182.039 2.22011C181.851 2.25493 181.644 2.38088 181.421 2.61733C181.201 2.85094 180.971 3.18526 180.733 3.62376V14.2278H185.82C187.727 14.2278 189.139 13.7459 190.075 12.7995Z" fill="white"/>
<path fill-rule="evenodd" clip-rule="evenodd" d="M201.967 26.4186C202.342 26.0921 202.602 25.7178 202.75 25.2956L211.753 0H215.377L224.38 25.2958C224.556 25.8003 224.814 26.1923 225.153 26.4768C225.49 26.7599 225.912 26.9411 226.423 27.0173H228.643V28.9659H216.911V27.0173H219.333C219.857 27.0173 220.192 26.8672 220.372 26.5951L220.375 26.5906C220.602 26.2863 220.704 26.0356 220.704 25.8341V25.3462L218.256 18.5478H207.559L205.188 25.3457V25.7952C205.188 26.0194 205.299 26.268 205.548 26.5427C205.786 26.7811 206.123 26.9416 206.568 27.0173H208.981V28.9659H198.68V27.0173H200.707C201.149 26.9417 201.568 26.7435 201.967 26.4186ZM217.707 16.621H208.185L212.946 3.20959L217.707 16.621Z" fill="white"/>
<path fill-rule="evenodd" clip-rule="evenodd" d="M118.953 34.4123L118.924 34.4036C118.66 34.3242 118.453 34.2289 118.31 34.1138C118.165 33.997 118.079 33.8542 118.079 33.6862C118.079 33.5329 118.163 33.38 118.299 33.2303C118.436 33.0789 118.637 32.918 118.899 32.7473L118.899 32.7469C122.225 30.6142 123.885 27.5748 123.885 23.6178V3.5289C123.837 3.26741 123.68 3.04611 123.399 2.86551C123.113 2.68226 122.701 2.54322 122.157 2.45356H119.55V0.504883H132.057V2.45356H129.256C128.604 2.55262 128.107 2.91264 127.761 3.54543V23.6178C127.761 26.2935 127.029 28.5359 125.561 30.3381C124.094 32.1391 121.897 33.4923 118.982 34.4033L118.953 34.4123Z" fill="white"/>
<path d="M92.6103 29.5345C92.5343 29.3048 92.4577 29.0625 92.3816 28.8074L92.3271 28.3167L92.7358 28.563L92.7375 28.5639C94.2757 29.4541 95.97 29.8989 97.8186 29.8989C100.875 29.8989 103.322 29.3008 105.15 28.0946C105.888 27.6179 106.619 26.8284 107.345 25.7342C108.105 24.6024 108.484 23.3129 108.484 21.869C108.484 19.2131 107.225 17.0461 104.725 15.3721C103.42 14.4807 101.315 13.687 98.4226 12.9866C97.889 12.859 97.0694 12.5638 95.9609 12.0976C94.8841 11.634 93.9635 11.0942 93.1973 10.4789C92.4514 9.87959 92.0734 9.00403 92.0734 7.83556C92.0734 6.67896 92.6359 5.53683 93.7853 4.40821C94.9279 3.28615 96.2963 2.72615 97.8964 2.72615C99.5175 2.72615 100.713 2.90761 101.494 3.26158L101.495 3.26203C102.306 3.6185 103.135 4.21906 103.98 5.06829L105.525 6.54208L106.396 7.66654L107.623 6.65381L103.798 0H101.685L101.708 0.11923C101.761 0.386762 101.867 0.717012 102.023 1.10854C102.099 1.30103 102.145 1.44571 102.162 1.54561C102.165 1.56165 102.168 1.5759 102.169 1.58849C100.584 0.788436 98.8625 0.38874 97.0058 0.38874C95.1015 0.38874 93.2001 0.965424 91.3037 2.11349L91.3032 2.11381C90.3587 2.69347 89.5862 3.50961 88.9851 4.55933L88.9845 4.56099C88.4078 5.61344 88.1207 6.78339 88.1207 8.06878V8.22429C88.1207 9.51116 88.4345 10.6386 89.0657 11.6027C89.6969 12.5664 90.6402 13.361 91.8912 13.989L91.8918 13.9894C94.0152 15.0295 96.9752 16.1198 100.771 17.2608C101.52 17.4866 102.447 18.1454 103.554 19.2572C104.042 19.7465 104.299 20.6321 104.299 21.9467C104.299 23.2027 103.625 24.4213 102.244 25.6027L102.244 25.6033C100.898 26.7762 99.0645 27.4063 96.7334 27.4838H96.5029C94.2638 27.4838 92.2113 26.5267 90.3422 24.5983L88.7967 23.1236L87.926 21.9991L86.6982 23.0118L90.5233 29.6657H92.6541L92.6103 29.5345Z" fill="white"/>
<path fill-rule="evenodd" clip-rule="evenodd" d="M59.8235 27.0148V28.9635H48.2456V27.0187L49.3087 26.976C50.4218 26.9375 51.2403 26.7063 51.7778 26.2965C52.3107 25.8908 52.5804 25.3006 52.5804 24.51V3.52697C52.5327 3.26542 52.376 3.04412 52.0945 2.86356C51.8084 2.68031 51.3969 2.54127 50.8526 2.4516H48.2456V0.50293H55.5512L72.2045 20.2727V5.0731C72.2045 4.18665 71.9406 3.53831 71.4275 3.10877C70.9104 2.67637 70.1248 2.4516 69.0521 2.4516H67.8692V0.50293H79.4471V2.49047H78.3414C77.2556 2.49047 76.4598 2.7122 75.9365 3.13875C75.4177 3.56208 75.1509 4.2005 75.1509 5.0731V30.3028L55.5273 6.93967V24.51C55.5273 25.354 55.8049 25.9724 56.3486 26.3837C56.8981 26.7991 57.7342 27.0148 58.8728 27.0148H59.8235Z" fill="white"/>
<path fill-rule="evenodd" clip-rule="evenodd" d="M8.68031 13.0558C8.67885 13.109 8.67788 13.1622 8.67739 13.2153C8.63363 17.9088 12.2613 21.9067 16.0285 24.346C20.2745 27.1118 25.1976 28.6065 30.217 29.1881V23.2075L30.18 23.2123C30.1295 23.2189 30.0789 23.2254 30.0284 23.2318C25.9053 23.7516 21.591 23.0206 17.6262 21.6417C15.604 20.9294 13.6537 19.4356 12.0522 17.9864C10.5946 16.6771 9.33003 14.9787 8.86963 13.0365C8.81106 12.7896 8.76555 12.5387 8.73427 12.2842C8.70498 12.5433 8.68721 12.8005 8.68031 13.0558Z" fill="white"/>
<path fill-rule="evenodd" clip-rule="evenodd" d="M17.6882 20.9746C21.676 22.3615 26.0262 22.7012 30.1799 22.1542V20.7652C26.1473 21.5271 21.9114 21.5593 17.9203 20.3983C15.9058 19.8035 13.9461 18.9162 12.3051 17.5727C11.0993 16.5923 10.008 15.357 9.34106 13.9209C9.92007 15.4302 10.9774 16.7665 12.178 17.8449L12.1784 17.8453C13.7559 19.2728 15.6818 20.2678 17.6882 20.9746Z" fill="white"/>
<path fill-rule="evenodd" clip-rule="evenodd" d="M8.677 8.98759V7.72279L8.70221 7.71947C12.8597 7.17117 17.2146 7.50918 21.2064 8.8974C23.2128 9.60419 25.1388 10.5993 26.7162 12.0267L26.7167 12.0272C27.6946 12.9057 28.5776 13.9553 29.1844 15.1302C28.5194 14.0042 27.6022 13.0214 26.607 12.2122C24.966 10.8688 23.0063 9.98142 20.9919 9.38663C17.0007 8.22563 12.7096 8.22563 8.677 8.98759Z" fill="white"/>
<path fill-rule="evenodd" clip-rule="evenodd" d="M22.8656 5.52671C26.8796 8.12588 30.7351 12.4944 30.1598 17.5885C30.1549 17.5482 30.1495 17.5079 30.1438 17.4677C30.1421 17.4551 30.1403 17.4429 30.1385 17.4303C30.1091 17.2299 30.0708 17.0318 30.0244 16.8361C30.0181 16.8095 30.0116 16.7828 30.005 16.7562C29.5293 14.8474 28.2794 13.1776 26.8418 11.8863C26.6417 11.7052 26.436 11.5309 26.2255 11.3633C24.7517 10.1902 23.0372 8.85428 21.2679 8.231C21.2295 8.21764 21.191 8.20437 21.1525 8.19125C21.128 8.18286 21.1035 8.17452 21.079 8.16622C17.1663 6.84454 12.9234 6.12936 8.86565 6.64093C8.83835 6.64434 8.81106 6.64785 8.78381 6.65136C8.74821 6.65595 8.7126 6.66058 8.67705 6.66527L8.677 4.66294L8.67705 0.68457C13.6964 1.26616 18.6196 2.76086 22.8656 5.52671Z" fill="white"/>
<path d="M0 0.68457H4.52693V21.6667H0V0.68457Z" fill="white"/>
</svg>
