<svg width="474" height="77" viewBox="0 0 474 77" fill="none" xmlns="http://www.w3.org/2000/svg">
<path fill-rule="evenodd" clip-rule="evenodd" d="M441.704 57.9437V61.1509H422.648V57.9501L424.397 57.8798H424.398C426.231 57.8164 427.577 57.4358 428.462 56.7614C429.338 56.0937 429.783 55.1223 429.783 53.821V19.2862C429.704 18.8557 429.446 18.4915 428.982 18.1943C428.512 17.8927 427.835 17.6639 426.939 17.5163H422.648V14.3091H434.672L462.08 46.8471V21.8309C462.08 20.3719 461.646 19.3049 460.801 18.5979C459.951 17.8862 458.658 17.5163 456.893 17.5163H454.946V14.3091H474.001V17.5803H472.182C470.394 17.5803 469.085 17.9452 468.223 18.6472C467.369 19.344 466.931 20.3947 466.931 21.8309V63.3551L434.633 24.903V53.821C434.633 55.2101 435.09 56.2279 435.985 56.9049C436.889 57.5886 438.265 57.9437 440.139 57.9437H441.704Z" fill="#222222"/>
<path fill-rule="evenodd" clip-rule="evenodd" d="M271.331 56.9607C271.949 56.4233 272.376 55.8073 272.62 55.1124L287.438 13.4797H293.402L308.22 55.1129C308.51 55.9431 308.935 56.5882 309.493 57.0565C310.047 57.5225 310.742 57.8207 311.581 57.9461H315.237V61.1533H295.926V57.9461H299.912C300.776 57.9461 301.326 57.699 301.623 57.2513L301.629 57.2438C302.002 56.7431 302.17 56.3304 302.17 55.9987V55.1958L298.141 44.0066H280.535L276.633 55.195V55.9348C276.633 56.3038 276.816 56.7128 277.224 57.1651C277.616 57.5574 278.171 57.8215 278.904 57.9461H282.875V61.1533H265.922V57.9461H269.257C269.984 57.8218 270.675 57.4954 271.331 56.9607ZM297.236 40.8354H281.565L289.401 18.7622L297.236 40.8354Z" fill="#222222"/>
<path fill-rule="evenodd" clip-rule="evenodd" d="M327.737 17.0072H323.446V13.7356L346.734 13.8C351.435 13.8 355.112 15.0885 357.741 17.6855C360.409 20.2781 361.74 23.5848 361.74 27.5919C361.74 31.7663 360.421 34.9227 357.76 37.0299C355.107 39.1312 351.146 40.1681 345.905 40.1681H336.96V56.108C337.102 56.7028 337.397 57.1383 337.841 57.4292C338.294 57.7259 338.917 57.8825 339.727 57.8825H344.03V61.0897H323.446V57.8848L328.12 57.8186C329.238 57.6554 330.054 57.0811 330.581 56.0866V19.7368C330.458 19.0541 330.137 18.4723 329.614 17.9874L329.61 17.983L329.605 17.9782C329.125 17.456 328.505 17.1315 327.737 17.0072ZM352.335 34.5461C353.876 32.9882 354.661 30.6379 354.661 27.4639C354.661 24.2779 354.168 21.8478 353.201 20.1559C352.239 18.4733 350.803 17.5114 348.879 17.2619C347.487 17.0924 345.753 17.0072 343.675 17.0072C341.644 17.0072 340.123 17.0497 339.11 17.134C338.8 17.1913 338.46 17.3986 338.093 17.7878C337.73 18.1722 337.352 18.7225 336.96 19.4442V36.8969H345.332C348.471 36.8969 350.795 36.1037 352.335 34.5461Z" fill="#222222"/>
<path fill-rule="evenodd" clip-rule="evenodd" d="M370.261 56.9607C370.877 56.4233 371.305 55.8073 371.549 55.1124L386.367 13.4797H392.331L407.149 55.1129C407.439 55.9431 407.864 56.5882 408.421 57.0565C408.976 57.5225 409.67 57.8207 410.511 57.9461H414.166V61.1533H394.855V57.9461H398.841C399.704 57.9461 400.256 57.699 400.553 57.2513L400.557 57.2438C400.931 56.7431 401.098 56.3304 401.098 55.9987V55.1958L397.07 44.0066H379.464L375.561 55.195V55.9348C375.561 56.3038 375.745 56.7128 376.154 57.1651C376.545 57.5574 377.1 57.8215 377.832 57.9461H381.805V61.1533H364.851V57.9461H368.186C368.914 57.8218 369.604 57.4954 370.261 56.9607ZM396.166 40.8354H380.494L388.33 18.7622L396.166 40.8354Z" fill="#222222"/>
<path fill-rule="evenodd" clip-rule="evenodd" d="M236.923 63.3399L236.876 63.3255C236.441 63.1948 236.1 63.038 235.865 62.8486C235.626 62.6564 235.485 62.4212 235.485 62.1447C235.485 61.8924 235.623 61.6409 235.846 61.3945C236.072 61.1452 236.403 60.8805 236.834 60.5995C242.307 57.0894 245.041 52.0863 245.041 45.5738V19.2862C244.962 18.8558 244.703 18.4916 244.24 18.1943C243.769 17.8927 243.092 17.6639 242.197 17.5163H237.905V14.3091H258.49V17.5163H253.88C252.806 17.6794 251.989 18.2719 251.419 19.3134V45.5738C251.419 49.9775 250.215 53.6682 247.798 56.6343C245.384 59.5985 241.769 61.8256 236.971 63.325L236.923 63.3399Z" fill="#222222"/>
<path d="M195.216 62.089C195.091 61.7111 194.965 61.3122 194.84 60.8923L194.75 60.0847L195.423 60.4901L195.426 60.4915C197.957 61.9568 200.746 62.6888 203.788 62.6888C208.819 62.6888 212.845 61.7044 215.854 59.7192C217.069 58.9346 218.272 57.6351 219.468 55.8343C220.718 53.9715 221.343 51.8492 221.343 49.4728C221.343 45.1016 219.27 41.5351 215.155 38.7799C213.007 37.3128 209.543 36.0064 204.782 34.8537C203.904 34.6437 202.555 34.1578 200.731 33.3906C198.959 32.6276 197.443 31.7392 196.182 30.7264C194.955 29.74 194.333 28.299 194.333 26.3759C194.333 24.4723 195.258 22.5925 197.15 20.735C199.031 18.8882 201.283 17.9666 203.916 17.9666C206.584 17.9666 208.553 18.2652 209.837 18.8478L209.839 18.8486C211.174 19.4352 212.538 20.4237 213.929 21.8214L216.472 24.247L217.905 26.0977L219.925 24.4309L213.63 13.4797H210.151L210.19 13.676C210.277 14.1163 210.451 14.6598 210.708 15.3042C210.834 15.621 210.909 15.8591 210.938 16.0236C210.942 16.05 210.946 16.0734 210.948 16.0942C208.34 14.7774 205.506 14.1195 202.451 14.1195C199.316 14.1195 196.187 15.0687 193.066 16.9582L193.065 16.9587C191.51 17.9128 190.239 19.256 189.25 20.9837L189.249 20.9864C188.3 22.7186 187.827 24.6442 187.827 26.7597V27.0157C187.827 29.1337 188.344 30.9893 189.382 32.5761C190.421 34.1621 191.974 35.4699 194.033 36.5036L194.034 36.5042C197.528 38.216 202.4 40.0104 208.647 41.8883C209.88 42.26 211.407 43.3444 213.228 45.1741C214.031 45.9795 214.455 47.437 214.455 49.6007C214.455 51.6678 213.345 53.6735 211.072 55.6179L211.071 55.6189C208.856 57.5493 205.839 58.5863 202.002 58.7138H201.623C197.938 58.7138 194.56 57.1386 191.483 53.9648L188.94 51.5377L187.506 49.6869L185.486 51.3537L191.781 62.305H195.288L195.216 62.089Z" fill="#222222"/>
<path fill-rule="evenodd" clip-rule="evenodd" d="M144.545 57.9437V61.1509H125.489V57.9501L127.239 57.8798C129.071 57.8164 130.418 57.4358 131.303 56.7614C132.18 56.0937 132.624 55.1223 132.624 53.821V19.2862C132.545 18.8557 132.287 18.4915 131.824 18.1943C131.353 17.8927 130.676 17.6639 129.78 17.5163H125.489V14.3091H137.513L164.922 46.8472V21.8309C164.922 20.3719 164.488 19.3049 163.643 18.5979C162.792 17.8862 161.499 17.5163 159.734 17.5163H157.787V14.3091H176.842V17.5803H175.022C173.235 17.5803 171.926 17.9452 171.064 18.6472C170.21 19.344 169.771 20.3947 169.771 21.8309V63.3551L137.474 24.903V53.821C137.474 55.2101 137.931 56.2279 138.826 56.9049C139.73 57.5886 141.106 57.9437 142.98 57.9437H144.545Z" fill="#222222"/>
<path d="M98.9877 22.9285H87.4546V76.1492H98.9877V22.9285Z" fill="#00168B"/>
<path fill-rule="evenodd" clip-rule="evenodd" d="M22.11 31.5145C22.1063 31.6503 22.1038 31.7858 22.1026 31.9211C21.9911 43.8784 31.2331 54.0637 40.8307 60.2782C51.648 67.3247 64.1906 71.1327 76.9783 72.6143V57.3777L76.8839 57.39C76.7552 57.4069 76.6265 57.4234 76.4977 57.4396C65.9934 58.7639 55.002 56.9017 44.901 53.3887C39.7493 51.574 34.7804 47.7683 30.7004 44.0761C26.987 40.7406 23.7653 36.4135 22.5923 31.4656C22.4431 30.8365 22.3272 30.1973 22.2475 29.5488C22.1728 30.209 22.1276 30.8643 22.11 31.5145Z" fill="#00168B"/>
<path fill-rule="evenodd" clip-rule="evenodd" d="M45.0573 51.6983C55.2168 55.2316 66.2996 56.0969 76.8819 54.7035V51.1647C66.6081 53.1059 55.8166 53.1878 45.6484 50.23C40.5163 48.7147 35.5235 46.454 31.3429 43.0314C28.2708 40.5335 25.4907 37.3864 23.7915 33.7278C25.2666 37.5731 27.9605 40.9775 31.0189 43.7248L31.0202 43.7259C35.0389 47.3626 39.9456 49.8977 45.0573 51.6983Z" fill="#00168B"/>
<path fill-rule="evenodd" clip-rule="evenodd" d="M22.1016 21.1517V17.9294L22.1658 17.9209C32.7576 16.524 43.8526 17.3852 54.0222 20.9219C59.1339 22.7226 64.0406 25.2577 68.0593 28.8944L68.0606 28.8956C70.5521 31.1336 72.8017 33.8077 74.3476 36.8011C72.6533 33.9324 70.3167 31.4284 67.7813 29.3669C63.6006 25.9444 58.6078 23.6836 53.4757 22.1683C43.3076 19.2105 32.3754 19.2105 22.1016 21.1517Z" fill="#00168B"/>
<path fill-rule="evenodd" clip-rule="evenodd" d="M58.2493 12.3362C68.4756 18.958 78.2982 30.0875 76.8325 43.0655C76.8199 42.9627 76.8063 42.8602 76.7918 42.7578C76.7874 42.7257 76.7828 42.6947 76.7782 42.6626C76.7032 42.152 76.6057 41.6473 76.4875 41.1488C76.4715 41.0808 76.455 41.0129 76.4382 40.9452C75.2261 36.0822 72.0419 31.828 68.3794 28.5382C67.8695 28.0768 67.3456 27.6329 66.8092 27.2058C63.0544 24.2171 58.6866 20.8137 54.179 19.2258C54.0811 19.1917 53.9831 19.1579 53.885 19.1245C53.8226 19.1031 53.7601 19.0819 53.6976 19.0607C43.7293 15.6935 32.9198 13.8715 22.5822 15.1748C22.5126 15.1835 22.4431 15.1924 22.3737 15.2014C22.283 15.2131 22.1923 15.2249 22.1017 15.2368L22.1016 10.1356L22.1017 0C34.8893 1.4817 47.4319 5.28968 58.2493 12.3362Z" fill="#00168B"/>
<path d="M0 0H11.5331V53.4553H0V0Z" fill="#00168B"/>
</svg>
