<svg width="288" height="47" viewBox="0 0 288 47" fill="none" xmlns="http://www.w3.org/2000/svg">
<path fill-rule="evenodd" clip-rule="evenodd" d="M268.375 35.206V37.1547H256.797V35.2099L257.859 35.1672H257.86C258.973 35.1287 259.791 34.8974 260.329 34.4877C260.861 34.082 261.131 33.4918 261.131 32.7011V11.7181C261.084 11.4566 260.927 11.2353 260.645 11.0547C260.359 10.8715 259.948 10.7324 259.404 10.6428H256.797V8.69409H264.102L280.755 28.4638V13.2643C280.755 12.3778 280.491 11.7295 279.978 11.2999C279.461 10.8675 278.676 10.6428 277.603 10.6428H276.42V8.69409H287.998V10.6816H286.892C285.807 10.6816 285.011 10.9034 284.488 11.3299C283.968 11.7532 283.702 12.3917 283.702 13.2643V38.4939L264.078 15.1308V32.7011C264.078 33.5451 264.356 34.1635 264.9 34.5749C265.449 34.9902 266.285 35.206 267.424 35.206H268.375Z" fill="white"/>
<path fill-rule="evenodd" clip-rule="evenodd" d="M164.858 34.6088C165.233 34.2822 165.492 33.908 165.641 33.4857L174.644 8.19019H178.268L187.271 33.486C187.447 33.9905 187.705 34.3825 188.044 34.667C188.381 34.9501 188.803 35.1313 189.313 35.2075H191.534V37.1561H179.802V35.2075H182.223C182.748 35.2075 183.082 35.0574 183.263 34.7853L183.266 34.7808C183.493 34.4765 183.595 34.2258 183.595 34.0243V33.5364L181.147 26.738H170.45L168.079 33.5359V33.9854C168.079 34.2096 168.19 34.4582 168.438 34.7329C168.677 34.9713 169.014 35.1318 169.459 35.2075H171.872V37.1561H161.572V35.2075H163.598C164.039 35.1319 164.459 34.9337 164.858 34.6088ZM180.597 24.8112H171.076L175.837 11.3998L180.597 24.8112Z" fill="white"/>
<path fill-rule="evenodd" clip-rule="evenodd" d="M199.13 10.3335H196.522V8.34564L210.672 8.38479C213.528 8.38479 215.762 9.16763 217.359 10.7455C218.98 12.3208 219.789 14.3299 219.789 16.7646C219.789 19.3009 218.988 21.2187 217.371 22.499C215.759 23.7757 213.352 24.4058 210.168 24.4058H204.733V34.0907C204.819 34.452 204.998 34.7167 205.268 34.8934C205.543 35.0737 205.922 35.1688 206.414 35.1688H209.029V37.1175H196.522V35.1702L199.362 35.13C200.041 35.0308 200.537 34.6819 200.857 34.0777V11.9919C200.782 11.5771 200.588 11.2236 200.27 10.929L200.267 10.9263L200.264 10.9234C199.972 10.6061 199.596 10.409 199.13 10.3335ZM214.075 20.9899C215.011 20.0433 215.488 18.6153 215.488 16.6868C215.488 14.7511 215.189 13.2745 214.601 12.2465C214.016 11.2242 213.144 10.6398 211.975 10.4882C211.129 10.3852 210.076 10.3335 208.813 10.3335C207.579 10.3335 206.655 10.3593 206.039 10.4105C205.851 10.4453 205.644 10.5712 205.421 10.8077C205.201 11.0413 204.971 11.3756 204.733 11.8141V22.4182H209.82C211.727 22.4182 213.139 21.9363 214.075 20.9899Z" fill="white"/>
<path fill-rule="evenodd" clip-rule="evenodd" d="M224.966 34.6088C225.341 34.2822 225.601 33.908 225.749 33.4857L234.752 8.19019H238.376L247.379 33.486C247.555 33.9905 247.813 34.3825 248.152 34.667C248.489 34.9501 248.911 35.1313 249.422 35.2075H251.642V37.1561H239.91V35.2075H242.332C242.856 35.2075 243.191 35.0574 243.371 34.7853L243.374 34.7808C243.601 34.4765 243.703 34.2258 243.703 34.0243V33.5364L241.255 26.738H230.558L228.187 33.5359V33.9854C228.187 34.2096 228.298 34.4582 228.547 34.7329C228.785 34.9713 229.122 35.1318 229.567 35.2075H231.98V37.1561H221.679V35.2075H223.706C224.148 35.1319 224.567 34.9337 224.966 34.6088ZM240.706 24.8112H231.184L235.945 11.3998L240.706 24.8112Z" fill="white"/>
<path fill-rule="evenodd" clip-rule="evenodd" d="M143.952 38.4847L143.923 38.476C143.659 38.3965 143.452 38.3013 143.309 38.1862C143.164 38.0694 143.078 37.9265 143.078 37.7585C143.078 37.6052 143.162 37.4524 143.298 37.3027C143.434 37.1512 143.636 36.9904 143.897 36.8197C147.223 34.687 148.884 31.6471 148.884 27.6902V11.7181C148.836 11.4566 148.679 11.2353 148.397 11.0547C148.111 10.8715 147.7 10.7324 147.156 10.6428H144.549V8.69409H157.056V10.6428H154.254C153.602 10.7418 153.106 11.1018 152.759 11.7346V27.6902C152.759 30.3658 152.028 32.6083 150.559 34.4105C149.093 36.2115 146.896 37.5646 143.981 38.4757L143.952 38.4847Z" fill="white"/>
<path d="M118.611 37.7246C118.535 37.495 118.458 37.2527 118.382 36.9976L118.328 36.5069L118.737 36.7532L118.738 36.754C120.276 37.6443 121.971 38.0891 123.819 38.0891C126.876 38.0891 129.322 37.491 131.15 36.2848C131.888 35.8081 132.619 35.0185 133.346 33.9244C134.106 32.7925 134.485 31.503 134.485 30.0592C134.485 27.4033 133.226 25.2363 130.726 23.5623C129.42 22.6709 127.316 21.8771 124.423 21.1768C123.89 21.0492 123.07 20.7539 121.962 20.2878C120.885 19.8242 119.964 19.2844 119.198 18.6691C118.452 18.0698 118.074 17.1942 118.074 16.0257C118.074 14.8691 118.637 13.727 119.786 12.5984C120.929 11.4763 122.297 10.9163 123.897 10.9163C125.518 10.9163 126.714 11.0978 127.495 11.4518L127.496 11.4522C128.307 11.8087 129.135 12.4092 129.981 13.2585L131.526 14.7323L132.396 15.8567L133.624 14.844L129.799 8.19019H127.685L127.709 8.30942C127.762 8.57695 127.867 8.9072 128.024 9.29873C128.1 9.49122 128.146 9.63589 128.163 9.7358C128.166 9.75183 128.168 9.76608 128.169 9.77868C126.585 8.97862 124.863 8.57893 123.007 8.57893C121.102 8.57893 119.201 9.15561 117.304 10.3037L117.304 10.304C116.359 10.8837 115.587 11.6998 114.986 12.7495L114.985 12.7512C114.409 13.8036 114.121 14.9736 114.121 16.259V16.4145C114.121 17.7013 114.435 18.8288 115.066 19.7929C115.698 20.7566 116.641 21.5512 117.892 22.1792L117.893 22.1796C120.016 23.2197 122.976 24.31 126.771 25.4509C127.521 25.6767 128.448 26.3356 129.555 27.4474C130.043 27.9367 130.3 28.8223 130.3 30.1369C130.3 31.3929 129.626 32.6115 128.245 33.7929L128.244 33.7935C126.899 34.9664 125.065 35.5965 122.734 35.6739H122.504C120.264 35.6739 118.212 34.7169 116.343 32.7885L114.797 31.3138L113.927 30.1893L112.699 31.202L116.524 37.8559H118.655L118.611 37.7246Z" fill="white"/>
<path fill-rule="evenodd" clip-rule="evenodd" d="M87.8237 35.206V37.1547H76.2458V35.2099L77.309 35.1672C78.422 35.1287 79.2405 34.8974 79.778 34.4877C80.311 34.082 80.5806 33.4918 80.5806 32.7011V11.7181C80.5329 11.4566 80.3763 11.2353 80.0947 11.0547C79.8087 10.8715 79.3972 10.7324 78.8528 10.6428H76.2458V8.69409H83.5514L100.205 28.4639V13.2643C100.205 12.3778 99.9408 11.7295 99.4277 11.2999C98.9106 10.8675 98.1251 10.6428 97.0523 10.6428H95.8694V8.69409H107.447V10.6816H106.342C105.256 10.6816 104.46 10.9034 103.937 11.3299C103.418 11.7532 103.151 12.3917 103.151 13.2643V38.4939L83.5276 15.1308V32.7011C83.5276 33.5451 83.8051 34.1635 84.3489 34.5749C84.8983 34.9902 85.7344 35.206 86.873 35.206H87.8237Z" fill="white"/>
<path d="M60.1441 13.931H53.1367V46.2674H60.1441V13.931Z" fill="white"/>
<path fill-rule="evenodd" clip-rule="evenodd" d="M13.4341 19.1478C13.4318 19.2303 13.4303 19.3127 13.4296 19.3948C13.3618 26.66 18.9772 32.8484 24.8086 36.6243C31.3811 40.9057 39.0018 43.2194 46.7715 44.1196V34.862L46.7141 34.8695C46.6359 34.8797 46.5577 34.8898 46.4795 34.8996C40.0971 35.7042 33.4189 34.5728 27.2817 32.4383C24.1516 31.3357 21.1325 29.0235 18.6535 26.7801C16.3973 24.7535 14.4398 22.1244 13.7271 19.1181C13.6365 18.7359 13.566 18.3475 13.5176 17.9535C13.4723 18.3546 13.4447 18.7528 13.4341 19.1478Z" fill="white"/>
<path fill-rule="evenodd" clip-rule="evenodd" d="M27.3764 31.4114C33.5492 33.5582 40.283 34.0839 46.7127 33.2373V31.0872C40.4705 32.2666 33.9137 32.3164 27.7356 30.5192C24.6174 29.5985 21.5838 28.225 19.0437 26.1455C17.1771 24.6278 15.488 22.7156 14.4556 20.4927C15.3518 22.829 16.9886 24.8975 18.8469 26.5667L18.8476 26.5674C21.2894 28.7771 24.2706 30.3173 27.3764 31.4114Z" fill="white"/>
<path fill-rule="evenodd" clip-rule="evenodd" d="M13.429 12.8515V10.8937L13.468 10.8885C19.9035 10.0398 26.6446 10.563 32.8236 12.7119C35.9294 13.806 38.9107 15.3463 41.3524 17.5559L41.3532 17.5566C42.867 18.9164 44.2338 20.5412 45.1731 22.3599C44.1437 20.6169 42.724 19.0955 41.1835 17.843C38.6433 15.7635 35.6097 14.3899 32.4916 13.4692C26.3135 11.672 19.6712 11.672 13.429 12.8515Z" fill="white"/>
<path fill-rule="evenodd" clip-rule="evenodd" d="M35.3919 7.49532C41.6053 11.5187 47.5735 18.2808 46.6829 26.1662C46.6752 26.1037 46.667 26.0414 46.6582 25.9792C46.6555 25.9597 46.6527 25.9408 46.6499 25.9214C46.6043 25.6111 46.5451 25.3044 46.4733 25.0016C46.4635 24.9603 46.4535 24.919 46.4433 24.8779C45.7069 21.9232 43.7722 19.3384 41.5469 17.3395C41.2371 17.0592 40.9187 16.7894 40.5928 16.53C38.3115 14.714 35.6576 12.6462 32.9188 11.6814C32.8594 11.6607 32.7998 11.6401 32.7402 11.6198C32.7023 11.6068 32.6643 11.5939 32.6264 11.5811C26.5697 9.53522 20.002 8.42817 13.721 9.22004C13.6787 9.22533 13.6365 9.23076 13.5943 9.2362C13.5392 9.2433 13.4841 9.25047 13.429 9.25772L13.429 6.15826L13.429 0C21.1986 0.900265 28.8194 3.21396 35.3919 7.49532Z" fill="white"/>
<path d="M0 0H7.00739V32.4789H0V0Z" fill="white"/>
</svg>
