<svg width="526" height="205" viewBox="0 0 526 205" fill="none" xmlns="http://www.w3.org/2000/svg">
<path d="M64.7677 117.813C58.4478 124.872 53.6219 129.902 50.3558 132.925C47.0933 135.979 44.7907 137.82 43.5102 138.441C43.1521 138.608 42.509 139.029 41.5497 139.707C40.594 140.416 39.6398 141.408 38.6871 142.683C37.9538 143.681 37.3476 145.23 36.8649 147.3C35.9903 150.327 35.1194 153.386 34.2795 156.441C31.0613 167.984 27.7775 179.504 23.8092 190.82C23.0601 192.763 22.4078 194.727 21.7901 196.718C21.3391 198.249 20.8535 199.753 20.3332 201.229C20.0496 201.765 19.7313 202.274 19.3819 202.787C19.3545 202.822 19.3307 202.887 19.3033 202.922C18.5079 203.927 16.836 203.618 16.6842 202.314C16.4978 200.983 17.006 200.484 17.8281 199.979C18.6741 199.409 19.7323 198.499 20.3521 196.256C26.2399 179.809 31.1076 162.977 35.4332 146.082C35.7694 144.375 33.8485 144.63 32.5023 145.228C31.2513 145.562 30.2111 145.274 29.3158 144.34C28.0213 142.949 27.2018 141.314 26.8572 139.435C26.1681 135.677 26.9746 131.525 28.4902 128.328C28.9037 127.556 29.7831 128.083 29.4973 128.872C28.9965 130.786 28.6272 132.748 28.4202 134.754C28.2263 136.602 28.3738 138.409 28.8663 140.208C29.1971 141.428 29.7913 142.208 30.6489 142.549C32.3368 143.265 34.5175 142.539 36.0145 141.075C36.8171 140.132 37.3533 139.063 37.6506 137.833C37.6708 137.736 37.722 137.636 37.7422 137.539C38.1824 135.915 38.6225 134.29 39.0663 132.697C40.9827 125.647 42.8645 118.569 44.7153 111.496C47.0587 101.627 49.53 91.7754 52.1326 81.9712C52.1788 81.5568 52.3144 81.1006 52.4703 80.5476C52.8643 79.3377 53.0995 78.1148 52.4006 77.7871C50.3493 80.1653 48.2793 82.9231 46.1559 86.0332C42.3733 91.9163 39.5954 97.2419 37.7985 102.076C38.3098 103.495 37.8465 104.65 37.0958 104.958C36.61 105.109 35.787 104.795 35.6339 104.562C35.5891 103.906 35.672 103.267 35.9448 102.638C38.309 96.731 41.3409 91.1556 44.5808 85.7447C46.489 82.4079 48.6362 79.2321 51.0224 76.2172C52.9914 73.9431 54.7489 71.4733 55.4097 68.502C55.7417 67.2993 56.0389 66.0691 56.3015 64.8116C56.7827 62.4589 57.4264 60.1503 58.2671 57.9131C58.5601 57.1868 59.6935 57.4639 59.6048 58.3236C59.659 58.7893 59.3437 59.8642 58.902 61.2055C58.5759 62.1873 58.3082 63.1308 58.0715 64.0707C57.6292 65.9469 57.825 67.0882 59.5184 66.2304C67.7499 59.1059 76.8015 53.0814 87.1846 49.5761C89.0037 48.9869 90.9794 48.6625 93.1118 48.603C97.3493 48.5188 101.212 50.0826 102.701 54.2195C103.115 56.9713 103.026 59.7188 102.429 62.431C101.236 67.8553 98.661 73.0315 95.9733 77.7804C91.0447 86.2508 84.9941 94.0024 78.8049 101.644C77.461 103.342 76.0896 105.075 74.7457 106.773C73.676 108.124 72.5096 109.456 71.2703 110.701C70.285 111.697 69.3381 112.751 68.4257 113.832C67.9761 114.294 67.5647 114.813 67.1532 115.333C66.0836 116.685 65.0031 117.943 63.4504 118.659L63.1313 118.35C65.1305 115.254 67.913 112.13 70.6204 109.172C71.9896 107.692 73.2109 106.291 74.3462 104.963C75.7378 103.134 77.1951 101.328 78.6559 99.5537C81.7769 95.8241 84.6935 91.9609 87.3986 87.9022C89.5949 84.878 91.7147 81.7368 93.6959 78.4859C97.6893 71.9806 100.555 64.9773 101.143 57.3267C101.218 54.4551 100.397 52.5371 98.7458 51.5967C95.3816 49.7231 90.1336 50.5857 86.1685 51.9282C77.4854 55.1726 69.6933 59.855 62.7683 66.0409C58.2274 69.4639 55.8202 71.7576 54.8983 77.6223C52.5332 87.3044 50.0677 96.9353 47.5055 106.546C44.791 116.741 42.2043 126.952 39.7107 137.153C39.7231 137.529 39.8487 137.797 40.053 137.931C41.7438 139.213 49.8987 131.971 64.5798 116.199C64.6413 116.727 64.7063 117.285 64.7677 117.813ZM79.2286 131.231C79.3181 131.189 79.4423 131.175 79.5665 131.16C79.9043 131.09 80.2696 130.984 80.6622 130.844C81.8331 130.362 82.8963 129.766 83.9105 129.019C84.3436 128.685 84.7767 128.352 85.2097 128.018C85.6739 127.681 86.1344 127.313 86.6296 126.972C86.657 126.937 86.7154 126.899 86.7429 126.864C87.2308 126.461 87.7917 126.144 88.3634 125.921C88.6045 125.83 88.7979 125.87 88.9748 126.038C89.1243 126.241 89.146 126.427 89.0161 126.663C88.9648 126.763 88.9136 126.863 88.8277 126.936C87.1993 128.353 85.4908 129.621 83.6746 130.777C82.7081 131.392 81.6997 131.919 80.6458 132.325C79.7709 132.647 78.9018 132.748 77.9727 132.604C77.9381 132.577 77.876 132.584 77.845 132.588C77.5548 132.527 77.2645 132.467 76.9743 132.406C76.0655 132.166 75.3414 131.621 74.8403 130.83C74.7182 130.592 74.5926 130.324 74.498 130.051C74.3615 129.69 74.1666 129.366 73.9096 129.05C73.7327 128.882 73.5392 128.842 73.3017 128.964C73.0917 129.051 72.9163 129.166 72.7791 129.339C71.9455 130.286 71.2158 131.314 70.5828 132.363C69.6864 133.852 68.6861 135.258 67.6128 136.579C67.4208 136.821 67.2324 137.095 67.0404 137.338C66.8723 137.514 66.7041 137.691 66.5049 137.872C66.4154 137.914 66.3605 137.983 66.302 138.021C65.9585 138.313 65.334 138.354 65.0294 138.169C64.5897 137.906 64.3565 137.524 64.3333 137.055C64.3081 136.838 64.3138 136.617 64.3506 136.392C64.3506 136.392 64.3506 136.392 64.3816 136.389C64.435 136.036 64.492 135.715 64.6147 135.418C65.8105 132.447 67.3802 129.716 69.3203 127.193C69.7628 126.67 70.2399 126.174 70.7589 125.768C71.4735 125.15 72.2863 124.835 73.2593 124.816C73.7979 124.848 74.3054 124.883 74.8439 124.915C74.8749 124.911 74.906 124.907 74.937 124.904C75.4791 124.966 75.9131 125.451 75.9543 126.075C75.9319 126.424 75.9096 126.773 75.9183 127.118C75.8981 127.214 75.9126 127.338 75.8924 127.435C75.8758 127.563 75.8902 127.687 75.8736 127.815C75.8679 128.036 75.8585 128.226 75.8528 128.447C75.8819 130.048 77.0854 131.198 78.6937 131.231C78.7248 131.227 78.8179 131.216 78.9457 131.233C79.0077 131.225 79.1009 131.215 79.2286 131.231ZM71.1842 127.26C71.1568 127.294 71.0947 127.302 71.0363 127.34C70.8883 127.42 70.6818 127.538 70.479 127.688C69.6071 128.576 68.8738 129.574 68.3137 130.708C67.6166 132.017 66.9194 133.325 66.2843 134.626C66.1544 134.861 66.0591 135.124 65.9985 135.414C65.9747 135.48 65.9819 135.542 65.9581 135.607C65.8665 135.901 65.9466 136.049 66.2368 136.11C66.3299 136.099 66.4541 136.084 66.5364 135.981C67.3571 135.193 68.0738 134.323 68.6519 133.343C69.4696 131.99 70.353 130.66 71.3058 129.385C71.4941 129.111 71.6789 128.807 71.8326 128.506C71.8767 128.343 71.9243 128.212 71.9683 128.049C71.9921 127.984 71.9849 127.922 72.0087 127.856C72.0621 127.504 71.6773 127.171 71.1842 127.26ZM90.2058 127.153C90.2404 127.181 90.2715 127.177 90.3061 127.205C90.3372 127.201 90.3682 127.197 90.4029 127.225C90.4375 127.252 90.4685 127.249 90.4996 127.245C90.7133 127.189 90.9269 127.132 91.1334 127.014C92.6918 126.077 94.1426 125.028 95.548 123.857C96.1493 123.347 96.7888 122.895 97.5013 122.529C98.2484 122.19 99.1406 122.558 99.366 123.413C99.4368 123.751 99.4729 124.061 99.4195 124.413C99.289 125.184 99.0963 125.961 98.838 126.715C98.4367 127.863 98.0009 128.983 97.596 130.1C97.3781 130.66 97.1948 131.248 96.9769 131.808C96.9494 131.843 96.9256 131.908 96.9018 131.974C96.6528 132.538 96.5042 133.153 96.4797 133.753C96.4942 133.878 96.5671 133.964 96.609 134.053C96.7822 134.19 96.9757 134.231 97.2132 134.109C97.2442 134.105 97.2442 134.105 97.2442 134.105C97.3337 134.063 97.4232 134.021 97.5091 133.948C97.5366 133.914 97.595 133.875 97.6535 133.837C97.8527 133.657 98.083 133.472 98.2786 133.261C100.125 131.284 102.041 129.362 103.994 127.499C104.307 127.211 104.588 126.926 104.87 126.642C105.117 126.33 105.398 126.046 105.652 125.796C106.305 125.185 106.988 124.571 107.676 123.987C107.878 123.838 108.085 123.719 108.357 123.625C108.447 123.583 108.509 123.576 108.598 123.534C108.843 123.474 109.244 123.679 109.408 124.006C109.496 124.216 109.459 124.44 109.325 124.645C109.243 124.749 109.188 124.818 109.102 124.891C107.225 126.336 105.456 127.895 103.802 129.629C103.38 130.056 102.989 130.479 102.566 130.906C101.694 131.794 100.85 132.647 99.9743 133.504C99.267 134.184 98.4975 134.871 97.7245 135.528C97.3462 135.792 96.9644 136.025 96.5753 136.196C96.5443 136.2 96.5443 136.2 96.5443 136.2C95.704 136.549 94.9453 135.977 94.8477 135.139C94.808 134.798 94.8029 134.484 94.8563 134.131C95.0402 133.009 95.3519 131.903 95.7986 130.875C96.381 129.392 96.9323 127.912 97.4526 126.436C97.5407 126.111 97.594 125.759 97.5853 125.413C97.6055 125.317 97.5911 125.193 97.6113 125.096C97.6315 124.999 97.555 124.882 97.5131 124.793C97.3326 124.593 97.1081 124.557 96.9052 124.706C96.2968 125.154 95.6883 125.603 95.0798 126.051C94.4128 126.538 93.7459 127.024 93.0789 127.511C92.5289 127.921 91.9716 128.269 91.3833 128.621C90.8809 128.9 90.3331 129.058 89.7635 129.03C88.5969 129.008 88.0063 128.259 88.0568 127.341C88.0336 126.871 88.1108 126.453 88.2811 126.025C88.8988 124.034 89.9597 122.337 91.4257 120.876C91.6798 120.627 91.9613 120.342 92.2117 120.061C92.5243 119.773 92.8058 119.489 93.1183 119.201C93.8531 118.486 94.6644 117.888 95.5869 117.435C96.0034 117.229 96.4344 117.147 96.9108 117.186C97.5807 117.266 98.1056 117.991 97.9296 118.641C97.9021 118.675 97.9094 118.737 97.8819 118.772C97.7903 119.066 97.6676 119.363 97.5377 119.599C96.1108 121.936 94.2609 123.881 91.9915 125.467C91.8471 125.578 91.6717 125.693 91.4927 125.777C90.9593 126.059 90.4988 126.427 90.1422 126.878C90.1148 126.912 90.1148 126.912 90.1494 126.94C90.1531 126.971 90.1603 127.033 90.1639 127.064C90.1675 127.095 90.1711 127.126 90.2058 127.153ZM95.6247 119.381C94.6567 119.714 93.8035 120.222 93.1034 120.964C92.2791 121.721 91.5934 122.587 90.9806 123.54C90.8197 123.779 90.8414 123.965 91.0767 124.095C91.1114 124.122 91.1734 124.115 91.2355 124.108C91.2976 124.1 91.3561 124.062 91.3835 124.027C93.196 122.841 94.6201 121.291 95.6247 119.381ZM116.154 90.8786C115.142 96.5022 114.101 102.16 113.088 107.784C112.076 113.408 111.032 119.035 110.019 124.658C108.794 130.621 106.627 143.898 105.023 153.901C104.333 157.977 103.895 160.702 103.671 162.018C103.652 162.398 103.421 163.117 103.056 163.222C102.684 163.265 102.323 162.867 102.051 162.427C104.124 149.695 106.329 137.012 108.595 124.321C110.594 113.108 112.685 101.885 114.842 90.6853C115.036 90.1908 115.456 90.016 115.816 90.1315C116.047 90.2304 116.208 90.5263 116.154 90.8786ZM84.3598 108.013C83.9671 108.154 83.604 108.007 83.5404 107.731C83.4805 107.487 83.6999 107.209 84.0616 107.073C98.7067 104.236 109.278 102.344 115.802 101.365C122.377 100.285 131.653 98.8903 143.568 97.1888C144.713 97.0241 145.169 97.1597 144.929 97.5337C144.71 97.8109 144.021 98.1113 143.26 98.3258C125.217 100.898 110.297 103.264 98.53 105.42C93.1651 106.359 88.4521 107.222 84.3598 108.013ZM129.571 128.297C128.194 128.363 127.026 128.058 126.101 127.411C125.523 127.038 125.031 126.592 124.59 126.045C124.26 125.643 123.961 125.238 123.662 124.832C123.436 124.512 123.21 124.193 122.953 123.876C122.803 123.674 122.623 123.474 122.442 123.275C122.404 123.217 122.335 123.162 122.3 123.134C121.839 122.685 120.889 122.638 120.405 123.072C120.378 123.106 120.323 123.176 120.264 123.214C120.12 123.325 120.007 123.433 119.924 123.537C118.902 124.757 118.05 126.083 117.333 127.488C117.08 128.021 116.827 128.553 116.571 129.055C116.366 129.457 116.161 129.858 115.987 130.256C115.407 131.487 114.723 132.637 113.942 133.766C113.723 134.043 113.461 134.231 113.127 134.333C112.796 134.465 112.402 134.323 112.238 133.996C112.047 133.703 111.98 133.396 112.002 133.048C112.089 131.905 112.304 130.779 112.589 129.708C112.785 128.961 113.016 128.242 113.212 127.496C113.52 126.359 113.832 125.253 114.144 124.147C114.235 123.853 114.331 123.59 114.391 123.3C114.782 122.059 115.106 120.794 115.369 119.537C115.463 118.991 115.619 118.438 115.809 117.912C116.482 115.852 116.961 113.751 117.246 111.61C117.309 111.068 117.465 110.515 117.752 110.01C117.882 109.774 118.371 109.654 118.634 109.75C118.769 109.828 118.87 109.88 118.911 109.969C118.982 110.307 119.049 110.614 119.089 110.955C119.083 111.176 119.047 111.401 118.979 111.629C118.53 112.908 118.143 114.18 117.826 115.507C117.67 116.06 117.545 116.609 117.389 117.162C116.745 119.471 116.098 121.748 115.42 124.03C114.83 125.986 114.336 127.963 113.97 129.956C113.941 130.242 114.052 130.387 114.273 130.392C114.397 130.378 114.483 130.305 114.565 130.201C115.522 128.422 116.51 126.64 117.464 124.83C118.058 123.722 118.826 122.752 119.733 121.892C120.073 121.569 120.451 121.305 120.837 121.102C121.522 120.771 122.157 120.823 122.773 121.255C123.12 121.529 123.439 121.838 123.734 122.212C123.922 122.474 124.113 122.766 124.308 123.089C124.427 123.296 124.511 123.475 124.625 123.65C124.664 123.709 124.733 123.764 124.775 123.853C125.043 124.262 125.311 124.672 125.606 125.046C126.975 126.806 128.824 127.283 131.09 126.484C131.545 126.337 131.992 126.128 132.433 125.856C132.491 125.818 132.553 125.811 132.612 125.772C134.508 124.765 136.362 123.668 138.175 122.482C139.695 121.487 141.257 120.582 142.896 119.793C143.281 119.591 143.705 119.447 144.167 119.362C144.38 119.306 144.601 119.311 144.83 119.379C145.058 119.447 145.2 119.588 145.26 119.833C145.285 120.05 145.214 120.247 145.014 120.427C144.983 120.431 144.983 120.431 144.987 120.462C144.901 120.535 144.843 120.573 144.753 120.615C141.981 121.661 139.368 123.004 136.92 124.673C135.606 125.55 134.223 126.371 132.829 127.1C132.148 127.462 131.428 127.766 130.674 128.043C130.34 128.145 130.033 128.212 129.784 128.241C129.691 128.252 129.629 128.259 129.571 128.297ZM146.499 127.239C144.23 127.472 142.287 126.723 142.366 124.165C142.392 123.847 142.429 123.623 142.477 123.491C142.917 121.867 143.833 120.282 144.258 119.603C145.008 118.478 147.352 115.373 149.919 113.91C150.246 113.746 151.172 113.324 152.205 113.55C152.433 113.618 152.634 113.72 152.807 113.857C153.327 114.269 153.248 114.939 153.194 115.291C153.198 115.322 153.198 115.322 153.17 115.357C153.02 116.224 152.454 117.044 151.479 117.85C149.53 119.493 147.039 120.79 146.198 121.139C146.14 121.177 146.023 121.254 145.817 121.372C145.61 121.491 145.349 121.678 145.095 121.928C144.431 122.446 144.069 123.117 144.011 123.973C143.942 125.271 144.595 126.013 146.024 126.13C146.373 126.152 146.714 126.113 147.049 126.011C148.696 125.567 150.218 124.856 151.648 123.902C152.838 123.04 154.024 122.147 155.144 121.23C156.553 120.091 157.997 118.979 159.475 117.895C159.674 117.714 159.943 117.589 160.218 117.525C160.342 117.511 160.47 117.527 160.574 117.609C160.647 117.695 160.685 117.754 160.696 117.847C160.707 117.94 160.691 118.068 160.67 118.165C160.564 118.334 160.427 118.507 160.283 118.619C158.545 120.174 156.765 121.639 154.915 123.05C153.397 124.328 151.732 125.434 149.949 126.334C148.996 126.791 147.834 127.084 146.499 127.239ZM150.79 116.263C150.878 115.938 150.884 115.717 150.839 115.597C150.873 115.624 150.72 115.39 150.492 115.322C149.784 115.185 146.937 118.568 146.244 119.372C147.057 119.057 150.456 116.9 150.79 116.263ZM161.723 118.829C161.758 118.856 161.789 118.852 161.823 118.88C161.854 118.876 161.885 118.873 161.92 118.9C161.955 118.927 161.986 118.924 162.017 118.92C162.23 118.864 162.444 118.808 162.65 118.689C164.209 117.753 165.66 116.703 167.065 115.533C167.666 115.022 168.306 114.57 169.018 114.204C169.765 113.865 170.658 114.233 170.883 115.088C170.954 115.426 170.99 115.736 170.937 116.089C170.806 116.859 170.613 117.636 170.355 118.39C169.954 119.538 169.518 120.658 169.113 121.775C168.895 122.335 168.712 122.923 168.494 123.483C168.467 123.518 168.443 123.583 168.419 123.649C168.17 124.213 168.021 124.828 167.997 125.429C168.011 125.553 168.084 125.639 168.126 125.728C168.299 125.865 168.493 125.906 168.73 125.784C168.761 125.78 168.761 125.78 168.761 125.78C168.851 125.738 168.94 125.696 169.026 125.623C169.054 125.589 169.112 125.551 169.171 125.512C169.37 125.332 169.6 125.148 169.796 124.936C171.642 122.959 173.558 121.038 175.512 119.174C175.824 118.886 176.106 118.602 176.387 118.317C176.634 118.005 176.915 117.721 177.17 117.471C177.822 116.86 178.506 116.246 179.193 115.662C179.396 115.513 179.602 115.395 179.874 115.3C179.964 115.258 180.026 115.251 180.115 115.209C180.36 115.149 180.761 115.354 180.925 115.681C181.013 115.891 180.976 116.116 180.842 116.32C180.76 116.424 180.705 116.493 180.619 116.566C178.743 118.011 176.973 119.57 175.319 121.304C174.897 121.731 174.506 122.154 174.083 122.581C173.211 123.469 172.367 124.322 171.491 125.179C170.784 125.859 170.015 126.547 169.242 127.203C168.863 127.467 168.481 127.7 168.092 127.872C168.061 127.875 168.061 127.875 168.061 127.875C167.221 128.225 166.462 127.652 166.365 126.814C166.325 126.473 166.32 126.159 166.373 125.806C166.557 124.684 166.869 123.578 167.316 122.551C167.898 121.067 168.449 119.587 168.97 118.111C169.058 117.786 169.111 117.434 169.102 117.089C169.123 116.992 169.108 116.868 169.128 116.771C169.149 116.674 169.072 116.557 169.03 116.468C168.85 116.269 168.625 116.232 168.422 116.381C167.814 116.83 167.205 117.278 166.597 117.726C165.93 118.213 165.263 118.7 164.596 119.186C164.046 119.596 163.489 119.944 162.9 120.296C162.398 120.575 161.85 120.733 161.281 120.705C160.114 120.683 159.523 119.934 159.574 119.016C159.551 118.547 159.628 118.129 159.798 117.7C160.416 115.709 161.477 114.012 162.943 112.552C163.197 112.302 163.478 112.017 163.729 111.737C164.041 111.449 164.323 111.164 164.635 110.876C165.37 110.161 166.182 109.563 167.104 109.11C167.521 108.904 167.951 108.823 168.428 108.861C169.098 108.941 169.623 109.666 169.447 110.316C169.419 110.351 169.426 110.413 169.399 110.447C169.307 110.741 169.185 111.039 169.055 111.274C167.628 113.611 165.778 115.557 163.509 117.142C163.364 117.253 163.189 117.368 163.01 117.452C162.476 117.734 162.016 118.102 161.659 118.553C161.632 118.587 161.632 118.587 161.667 118.615C161.67 118.646 161.677 118.708 161.681 118.739C161.685 118.77 161.688 118.801 161.723 118.829ZM167.142 111.056C166.174 111.389 165.321 111.897 164.62 112.64C163.796 113.396 163.111 114.263 162.498 115.215C162.337 115.454 162.358 115.64 162.594 115.77C162.628 115.797 162.691 115.79 162.753 115.783C162.815 115.776 162.873 115.737 162.901 115.703C164.713 114.516 166.137 112.966 167.142 111.056ZM198.187 119.649C197.445 120.302 196.773 121.009 196.204 121.799C195.957 122.111 195.738 122.388 195.487 122.669C195.432 122.738 195.377 122.808 195.35 122.842C194.966 123.328 194.544 123.754 194.052 124.126C193.791 124.314 193.46 124.447 193.119 124.486C192.591 124.548 191.982 124.178 191.796 123.665C191.638 123.117 191.604 122.555 191.694 121.978C192.093 119.729 192.952 117.647 194.209 115.739C194.232 115.674 194.287 115.604 194.342 115.535C194.951 114.552 195.692 113.616 196.509 112.797C196.767 112.579 197.031 112.422 197.362 112.289C197.7 112.218 198.156 112.354 198.275 112.56C198.438 112.887 198.365 113.336 198.228 113.51C198.2 113.544 198.145 113.614 198.118 113.648C198.091 113.683 198.036 113.752 198.008 113.787C197.716 113.978 197.42 114.138 197.159 114.326C196.57 114.678 196.093 115.174 195.689 115.756C194.531 117.432 193.709 119.29 193.251 121.294C193.23 121.39 193.214 121.518 193.259 121.639C193.301 121.728 193.343 121.818 193.416 121.904C193.565 122.106 193.852 122.136 193.989 121.963C195.274 120.838 196.451 119.6 197.528 118.31C197.748 118.033 197.967 117.756 198.19 117.51C198.495 117.159 198.77 116.813 199.047 116.497C199.185 116.324 199.356 116.178 199.563 116.06C199.886 115.865 200.2 115.86 200.532 116.01C200.795 116.105 201.035 116.549 200.975 116.839C200.951 116.905 200.958 116.967 200.931 117.002C200.881 117.385 200.769 117.776 200.657 118.166C200.538 118.495 200.419 118.823 200.3 119.152C200.027 119.781 199.848 120.4 199.768 121.07C199.77 121.353 199.881 121.497 200.137 121.53C200.233 121.55 200.358 121.536 200.447 121.494C200.568 121.449 200.653 121.376 200.739 121.303C200.767 121.268 200.767 121.268 200.794 121.233C200.939 121.122 201.079 120.98 201.216 120.807C201.244 120.772 201.244 120.772 201.271 120.737C202.893 118.724 204.484 116.714 206.075 114.704C206.651 113.976 207.095 113.201 207.405 112.347C207.524 112.019 207.678 111.717 207.901 111.471C208.01 111.333 208.217 111.214 208.43 111.158C208.43 111.158 208.43 111.158 208.462 111.154C208.737 111.091 209.111 111.33 209.275 111.657C209.331 111.871 209.384 112.054 209.441 112.267C209.497 112.481 209.588 112.722 209.644 112.936C209.861 113.445 210.498 113.78 211.022 113.688C212.68 113.337 214.323 112.863 215.929 112.33C216.322 112.19 216.683 112.054 217.076 111.913C218.612 111.326 220.159 110.831 221.713 110.398C222.051 110.328 222.358 110.26 222.703 110.252C222.951 110.223 223.148 110.294 223.329 110.493C223.513 110.724 223.508 111.228 223.278 111.412C223.251 111.446 223.251 111.446 223.22 111.45C223.079 111.592 222.904 111.707 222.725 111.791C222.518 111.909 222.308 111.997 222.094 112.053C220.65 112.347 219.247 112.73 217.89 113.234C217.342 113.393 216.798 113.582 216.219 113.743C215.764 113.891 215.306 114.007 214.851 114.154C214.121 114.365 213.39 114.576 212.663 114.818C211.365 115.284 210.023 115.377 208.665 115.063C208.05 114.915 207.586 115.252 207.167 115.71C206.639 116.306 206.145 116.93 205.655 117.584C205.518 117.758 205.408 117.896 205.271 118.07C204.75 118.728 204.232 119.417 203.711 120.076C203.296 120.565 202.912 121.05 202.528 121.535C202.069 122.186 201.506 122.755 200.905 123.266C200.644 123.453 200.351 123.645 200.024 123.808C199.157 124.193 198.049 123.598 198.038 122.687C198.048 121.962 198.092 121.265 198.106 120.571C198.132 120.253 198.158 119.936 198.153 119.622L198.187 119.649ZM225.991 104.174C225.739 104.172 225.511 104.105 225.338 103.967C225.168 103.861 225.022 103.69 224.966 103.476C224.867 103.173 224.928 102.882 225.113 102.578C225.332 102.301 225.628 102.14 225.97 102.101C226.187 102.075 226.384 102.147 226.502 102.353C226.537 102.381 226.575 102.439 226.614 102.497C226.648 102.525 226.655 102.587 226.663 102.649C226.699 102.959 226.704 103.273 226.682 103.622C226.669 103.781 226.586 103.885 226.442 103.996C226.298 104.107 226.15 104.187 225.991 104.174ZM263.949 82.421C264.146 82.4925 264.226 82.6405 264.151 82.8065C264.069 82.9105 263.959 83.0491 263.753 83.1675C263.55 83.3169 263.312 83.439 263.04 83.5336C255.7 84.797 249.111 86.0359 243.237 87.1916C241.654 93.322 240.218 99.9072 238.929 106.947C237.72 113.852 236.819 120.438 236.227 126.705C235.662 132.937 235.307 138.798 235.156 144.259C235.181 144.476 235.144 144.7 235.007 144.874C234.901 145.043 234.76 145.186 234.578 145.238C234.336 145.329 234.081 145.296 233.815 145.17C233.579 145.04 233.395 144.81 233.324 144.472C233.519 138.849 233.919 132.825 234.59 126.423C235.26 120.022 236.267 113.266 237.552 106.195C238.574 100.917 239.686 95.8791 240.859 91.0864C239.875 93.7178 238.679 96.6885 237.275 100.03C235.625 103.965 233.842 107.571 231.896 110.849C229.98 114.124 228.09 116.263 226.221 117.235C226.07 117.285 225.891 117.368 225.653 117.49C225.412 117.581 225.202 117.669 224.988 117.725C224.775 117.781 224.619 117.799 224.547 117.714C223.256 117.706 222.428 117.079 222.066 115.863C222.006 115.618 221.95 115.405 221.924 115.187C221.914 115.094 221.906 115.032 221.899 114.97C221.825 113.248 222.113 111.673 222.73 110.217C222.809 110.082 222.887 109.947 222.997 109.808C223.025 109.774 223.079 109.704 223.107 109.67C223.189 109.566 223.341 109.517 223.496 109.499C223.651 109.481 223.81 109.494 223.976 109.569C224.138 109.613 224.242 109.695 224.288 109.815C224.483 110.139 224.523 110.48 224.435 110.805C224.319 111.165 224.2 111.493 224.05 111.825C223.927 112.123 223.801 112.389 223.678 112.686C223.42 113.44 223.386 114.231 223.573 115.027C223.648 115.396 223.835 115.657 224.109 115.845C224.109 115.845 224.144 115.873 224.213 115.928C224.313 115.979 224.414 116.03 224.541 116.047C224.704 116.091 224.863 116.104 225.052 116.113C226.08 116.025 227.113 115.433 228.173 114.271C229.233 113.11 230.213 111.8 231.106 110.28C232.03 108.757 232.755 107.414 233.311 106.248C233.898 105.079 234.175 104.48 234.175 104.48C236.48 99.1468 238.721 93.5375 240.93 87.6488C237.397 88.3747 234.143 89.0681 231.171 89.7601C227.338 90.6152 223.998 91.3816 221.093 92.0973C220.803 92.0367 220.66 91.896 220.597 91.6202C220.586 91.5271 220.579 91.465 220.603 91.3993C220.626 91.3336 220.65 91.2679 220.678 91.2333C220.705 91.1986 220.701 91.1676 220.733 91.164C229.818 88.9423 236.681 87.357 241.386 86.4317C241.648 85.709 241.91 84.9864 242.172 84.2638C243.077 81.7674 243.955 79.3057 244.774 76.8822C245.208 75.4788 245.674 74.0718 246.115 72.7305C246.203 72.4057 246.333 72.1703 246.536 72.0209C246.735 71.8404 246.918 71.7877 247.08 71.8317C247.212 71.8793 247.319 71.9926 247.407 72.2027C247.463 72.4163 247.488 72.6336 247.428 72.9238C246.048 77.0171 244.763 81.3824 243.541 86.0235C248.212 85.0708 254.711 83.8739 263.069 82.4291C263.469 82.3511 263.752 82.3496 263.949 82.421ZM245.155 110.155C245.299 110.044 245.474 109.929 245.65 109.814C246.024 109.519 246.437 109.282 246.885 109.073C247.884 108.736 248.818 109.194 249.45 110.033C249.746 110.407 250.017 110.847 250.227 111.295C250.341 111.47 250.425 111.649 250.509 111.828C251.028 112.775 252.014 113.95 253.198 113.309C253.288 113.267 253.346 113.229 253.436 113.187C253.642 113.068 253.845 112.919 254.048 112.769C254.161 112.662 254.274 112.554 254.419 112.443C255.164 111.821 255.875 111.172 256.552 110.496C257.915 109.236 259.348 108.031 260.823 106.916C261.053 106.731 261.283 106.547 261.544 106.36C261.892 106.099 262.273 105.866 262.69 105.66C262.9 105.573 263.114 105.516 263.335 105.522C263.614 105.489 263.753 105.599 263.813 105.844C263.827 105.968 263.807 106.065 263.787 106.162C263.759 106.196 263.701 106.234 263.673 106.269C263.481 106.512 263.282 106.692 263.083 106.873C261.223 108.19 259.47 109.621 257.794 111.169C256.798 112.072 255.771 112.978 254.744 113.884C254.397 114.145 254.018 114.409 253.64 114.673C251.603 115.823 250.023 113.867 249.072 112.185C249.034 112.126 248.995 112.068 248.961 112.04C248.957 112.009 248.957 112.009 248.922 111.982C248.766 111.717 248.578 111.455 248.332 111.232C248.013 110.924 247.522 110.76 247.071 110.939C246.53 111.159 246.062 111.465 245.702 111.885C245.174 112.481 244.749 113.16 244.425 113.889C244.193 114.326 243.995 114.789 243.797 115.252C243.603 115.747 243.405 116.21 243.177 116.678C243.019 116.948 242.827 117.19 242.604 117.436C242.577 117.471 242.577 117.471 242.577 117.471C242.409 117.648 242.195 117.704 241.936 117.64C241.708 117.572 241.593 117.397 241.533 117.152C241.484 117 241.473 116.907 241.493 116.811C241.503 116.621 241.516 116.462 241.563 116.33C241.611 116.199 241.635 116.133 241.631 116.102C241.77 115.677 242.346 113.597 243.386 109.826C245.5 102.313 248.275 91.8276 249.686 85.843C250.364 82.7439 251.091 79.2615 251.806 75.403C252.451 72.0245 253.057 69.1224 253.586 66.6384C254.118 64.1854 254.536 62.9098 254.805 62.7841C255.088 62.7826 255.354 62.9089 255.389 62.9364C255.635 63.1594 255.729 63.4315 255.758 63.6799C254.36 70.8584 252.794 78.2138 251.091 85.7425C249.202 94.1108 247.225 102.269 245.155 110.155ZM276.663 113.535C276.683 113.438 276.672 113.345 276.658 113.221C276.656 112.938 276.686 112.651 276.708 112.302C276.804 111.505 276.935 110.734 277.131 109.988C277.503 108.592 277.907 107.192 278.279 105.796C278.431 105.212 278.615 104.624 278.77 104.071C278.886 103.712 278.97 103.356 279.055 103C279.302 102.153 279.519 101.31 279.77 100.494C279.909 100.069 280.145 99.6641 280.45 99.3139C280.533 99.2099 280.684 99.1608 280.87 99.1392C281.057 99.1175 281.219 99.1615 281.354 99.2402C281.558 99.3737 281.673 99.5491 281.702 99.7974C281.696 100.018 281.66 100.243 281.588 100.44C281.407 100.776 281.257 101.108 281.107 101.44C280.796 102.011 280.519 102.609 280.305 103.201C279.809 104.611 279.405 106.011 279.036 107.438C278.763 108.603 278.493 109.798 278.285 110.986C278.221 111.245 278.188 111.501 278.124 111.76C278.07 112.112 278.107 112.423 278.239 112.753C278.281 112.843 278.389 112.956 278.486 112.976C278.551 113 278.613 112.993 278.644 112.989C278.706 112.982 278.769 112.975 278.827 112.937C279.092 112.78 279.288 112.568 279.441 112.267C279.469 112.233 279.465 112.202 279.461 112.171C280.789 110.066 282.086 107.964 283.38 105.831C284.194 104.447 285.15 103.203 286.242 102.038C286.551 101.718 286.925 101.423 287.342 101.217C287.937 100.928 288.811 101.141 289.159 101.698C289.362 102.083 289.567 102.5 289.742 102.92C289.848 103.285 289.953 103.651 290.062 104.047C290.171 104.443 290.277 104.808 290.417 105.201C290.56 105.625 290.766 106.041 290.999 106.423C291.677 107.382 292.417 107.517 293.248 106.822C293.561 106.534 293.842 106.25 294.12 105.934C294.202 105.83 294.312 105.691 294.425 105.584C294.617 105.341 294.844 105.126 295.067 104.88C295.54 104.353 296.014 103.826 296.491 103.33C296.776 103.077 297.099 102.882 297.423 102.687C297.481 102.648 297.54 102.61 297.598 102.572C298.218 102.217 298.964 102.413 299.381 103.025C299.507 103.293 299.667 103.589 299.793 103.858C299.842 104.01 299.919 104.126 299.964 104.247C300.288 104.87 300.98 105.136 301.731 104.828C302.481 104.52 303.128 104.13 303.726 103.589C304.963 102.595 306.273 101.688 307.621 100.839C308.003 100.606 308.389 100.403 308.843 100.256C309.178 100.154 309.499 100.211 309.804 100.396C310.008 100.53 310.095 100.74 310.062 100.995C310.042 101.092 309.994 101.223 309.905 101.265C309.643 101.453 309.347 101.613 309.017 101.746C307.709 102.402 306.477 103.174 305.326 104.095C304.261 104.942 303.157 105.732 302.019 106.493C301.52 106.803 301.014 107.051 300.466 107.209C300.008 107.325 299.617 107.213 299.232 106.881C298.913 106.572 298.649 106.193 298.443 105.777C298.325 105.57 298.21 105.395 298.092 105.189C297.831 104.841 297.23 104.817 296.887 105.109C296.805 105.213 296.75 105.282 296.664 105.355C296.492 105.501 296.324 105.678 296.156 105.854C295.902 106.104 295.682 106.381 295.432 106.662C295.068 107.051 294.708 107.47 294.344 107.859C294.035 108.178 293.726 108.497 293.348 108.761C293.056 108.952 292.76 109.113 292.425 109.214C291.846 109.376 291.332 109.279 290.874 108.86C290.555 108.551 290.263 108.208 289.999 107.829C289.352 106.867 288.888 105.851 288.571 104.755C288.515 104.542 288.424 104.3 288.337 104.09C288.295 104.001 288.249 103.88 288.207 103.791C288.009 103.436 287.363 103.291 287.016 103.552C286.957 103.59 286.902 103.66 286.813 103.701C286.696 103.778 286.583 103.886 286.5 103.99C284.915 105.779 283.531 107.67 282.292 109.733C281.718 110.744 281.14 111.724 280.562 112.703C280.456 112.873 280.353 113.074 280.216 113.247C279.877 113.853 279.466 114.372 278.985 114.837C278.618 115.195 278.225 115.335 277.745 115.265C277.285 115.098 276.997 114.786 276.85 114.331C276.801 114.179 276.752 114.028 276.73 113.841C276.719 113.748 276.708 113.655 276.663 113.535ZM343.198 103.493C341.822 103.559 340.653 103.255 339.729 102.607C339.15 102.234 338.658 101.788 338.22 101.273C337.891 100.87 337.592 100.465 337.289 100.028C337.063 99.7084 336.837 99.3886 336.58 99.0724C336.431 98.8696 336.25 98.6704 336.07 98.4712C336.031 98.4127 335.962 98.3579 335.927 98.3304C335.466 97.8808 334.52 97.865 334.033 98.2679C334.005 98.3025 333.95 98.3718 333.892 98.4101C333.747 98.5213 333.634 98.6288 333.552 98.7328C332.53 99.9529 331.677 101.279 330.964 102.715C330.707 103.217 330.455 103.75 330.199 104.251C329.994 104.653 329.789 105.054 329.615 105.452C329.035 106.683 328.354 107.864 327.569 108.962C327.35 109.239 327.089 109.427 326.758 109.56C326.42 109.63 326.026 109.488 325.869 109.223C325.674 108.899 325.607 108.592 325.63 108.244C325.72 107.132 325.904 106.01 326.216 104.904C326.412 104.157 326.643 103.438 326.84 102.692C327.148 101.555 327.459 100.449 327.771 99.3428C327.863 99.049 327.958 98.7862 328.019 98.496C328.413 97.2861 328.737 96.0213 328.996 94.7327C329.09 94.1869 329.249 93.665 329.436 93.1084C330.109 91.0481 330.592 88.9784 330.877 86.8373C330.936 86.2641 331.092 85.7111 331.379 85.2058C331.509 84.9704 331.999 84.8505 332.265 84.9768C332.393 84.9934 332.497 85.0757 332.539 85.1652C332.61 85.503 332.677 85.8098 332.716 86.1513C332.711 86.3721 332.674 86.5967 332.606 86.8248C332.157 88.104 331.774 89.407 331.453 90.7029C331.297 91.2558 331.176 91.8362 331.02 92.3892C330.373 94.6668 329.726 96.9445 329.047 99.2257C328.457 101.182 327.964 103.159 327.598 105.152C327.568 105.438 327.679 105.583 327.9 105.588C327.962 105.581 328.021 105.543 328.079 105.505C328.107 105.47 328.169 105.463 328.196 105.428C329.153 103.649 330.138 101.836 331.095 100.057C331.689 98.9496 332.454 97.9483 333.36 97.0877C333.7 96.7649 334.082 96.5317 334.468 96.3296C335.149 95.9671 335.784 96.019 336.404 96.4816C336.751 96.7559 337.07 97.0648 337.362 97.4084C337.553 97.7007 337.744 97.9931 337.936 98.2854C338.054 98.4919 338.138 98.6709 338.253 98.8463C338.295 98.9358 338.364 98.9906 338.402 99.0491C338.67 99.4584 338.938 99.8677 339.233 100.242C340.602 102.002 342.454 102.51 344.721 101.711C345.172 101.533 345.62 101.324 346.064 101.083C346.122 101.045 346.181 101.007 346.239 100.968C348.135 99.9611 349.99 98.8643 351.802 97.6781C353.322 96.6831 354.884 95.7777 356.523 94.9892C356.908 94.787 357.332 94.6433 357.794 94.5581C358.011 94.5328 358.232 94.5386 358.457 94.5753C358.685 94.6432 358.831 94.815 358.887 95.0286C358.916 95.277 358.845 95.474 358.642 95.6235C358.614 95.6581 358.614 95.6581 358.614 95.6581C358.528 95.7311 358.47 95.7693 358.381 95.8112C355.608 96.8576 352.996 98.1998 350.551 99.9002C349.237 100.777 347.85 101.567 346.46 102.327C345.775 102.658 345.055 102.962 344.301 103.239C343.967 103.341 343.66 103.408 343.412 103.437C343.322 103.479 343.26 103.486 343.198 103.493ZM331.264 85.5653C331.364 85.6165 331.496 85.6641 331.596 85.7154C331.696 85.7666 331.828 85.8142 331.928 85.8655C329.769 91.3708 327.677 95.8301 325.597 99.3127C323.517 102.795 321.716 104.893 320.132 105.612C318.903 106.132 317.864 106.127 317.167 106.083C314.81 105.571 313.4 103.721 312.946 102.799C312.5 103.291 311.917 103.957 311.224 104.761C310.531 105.565 309.791 106.501 308.975 107.603C308.814 107.842 308.649 108.05 308.489 108.289C307.814 109.248 307.073 110.184 306.333 111.119C306.086 111.431 305.773 111.719 305.453 111.945C305.072 112.178 304.699 112.222 304.309 112.11C303.873 111.878 303.643 111.527 303.589 111.061C303.566 110.592 303.612 110.178 303.751 109.752C304.288 108.148 304.991 106.619 305.891 105.162C306.745 103.584 307.738 102.115 308.87 100.756C309.474 99.994 310.192 99.407 311.059 99.0229C312.499 98.4149 314.945 98.3503 315.206 100.05C315.229 100.52 315.218 100.961 315.175 101.407C315.045 102.177 315.007 102.936 315.57 103.72C315.689 103.927 316.095 104.446 316.853 104.735C317.893 105.023 318.795 104.666 319.243 104.457C320.94 103.63 322.682 101.571 324.045 99.4934C325.168 97.7896 326.251 95.7444 326.278 95.7097C328.423 91.4331 330.076 88.0631 331.264 85.5653ZM311.219 101.741C311.263 101.579 311.214 101.427 311.04 101.29C310.867 101.153 310.674 101.113 310.429 101.173C310.401 101.207 310.339 101.215 310.281 101.253C310.098 101.306 309.923 101.42 309.724 101.601C308.821 102.492 308.087 103.49 307.524 104.594C306.826 105.902 306.16 107.207 305.529 108.539C305.399 108.774 305.304 109.037 305.239 109.296C305.212 109.331 305.216 109.362 305.219 109.393C305.192 109.427 305.195 109.458 305.168 109.493C305.107 109.783 305.188 109.931 305.447 109.995C305.512 110.019 305.575 110.012 305.633 109.974C305.691 109.935 305.754 109.928 305.781 109.894C306.602 109.106 307.284 108.209 307.862 107.229C308.711 105.872 309.598 104.573 310.55 103.298C310.735 102.993 310.923 102.72 311.046 102.422C311.121 102.256 311.165 102.094 311.178 101.935C311.202 101.869 311.195 101.807 311.219 101.741ZM368.774 97.5273C368.863 97.4854 368.987 97.471 369.111 97.4565C369.449 97.3857 369.815 97.2803 370.207 97.1402C371.378 96.6578 372.441 96.0621 373.455 95.3149C373.889 94.9813 374.322 94.6478 374.755 94.3142C375.219 93.977 375.679 93.6088 376.175 93.268C376.202 93.2334 376.26 93.1951 376.288 93.1604C376.776 92.7576 377.337 92.4406 377.908 92.2167C378.149 92.1258 378.343 92.1662 378.52 92.3343C378.669 92.5372 378.691 92.7234 378.561 92.9588C378.51 93.0591 378.459 93.1595 378.373 93.2324C376.744 94.6489 375.036 95.9175 373.22 97.0727C372.253 97.6886 371.245 98.2149 370.191 98.6208C369.316 98.9428 368.447 99.044 367.518 98.9005C367.483 98.873 367.421 98.8803 367.39 98.8839C367.1 98.8233 366.81 98.7627 366.519 98.7021C365.61 98.4618 364.886 97.9169 364.385 97.1257C364.263 96.8883 364.138 96.6197 364.043 96.3476C363.907 95.9859 363.712 95.6626 363.455 95.3464C363.278 95.1782 363.084 95.1378 362.847 95.2599C362.637 95.3472 362.461 95.462 362.324 95.6353C361.49 96.5818 360.761 97.6106 360.128 98.6595C359.231 100.148 358.231 101.555 357.158 102.875C356.966 103.118 356.777 103.391 356.585 103.634C356.417 103.811 356.249 103.987 356.05 104.168C355.96 104.21 355.905 104.279 355.847 104.317C355.503 104.609 354.879 104.65 354.574 104.466C354.135 104.202 353.901 103.82 353.878 103.351C353.853 103.134 353.859 102.913 353.896 102.688C353.896 102.688 353.896 102.688 353.927 102.685C353.98 102.332 354.037 102.011 354.16 101.714C355.355 98.7431 356.925 96.0121 358.865 93.4896C359.308 92.9662 359.785 92.4702 360.304 92.0637C361.018 91.4457 361.831 91.1308 362.804 91.1119C363.343 91.1436 363.85 91.179 364.389 91.2107C364.42 91.207 364.451 91.2034 364.482 91.1998C365.024 91.2625 365.458 91.7469 365.499 92.3713C365.477 92.72 365.455 93.0686 365.463 93.4137C365.443 93.5104 365.458 93.6346 365.437 93.7313C365.421 93.8591 365.435 93.9833 365.419 94.111C365.413 94.3319 365.404 94.5218 365.398 94.7427C365.427 96.3438 366.63 97.4936 368.239 97.5266C368.27 97.523 368.363 97.5122 368.491 97.5288C368.553 97.5215 368.646 97.5107 368.774 97.5273ZM360.729 93.5558C360.702 93.5904 360.64 93.5976 360.581 93.6359C360.433 93.7161 360.227 93.8345 360.024 93.9839C359.152 94.8719 358.419 95.8697 357.859 97.0045C357.162 98.3127 356.464 99.6208 355.829 100.922C355.699 101.157 355.604 101.42 355.544 101.71C355.52 101.776 355.527 101.838 355.503 101.904C355.411 102.197 355.492 102.345 355.782 102.406C355.875 102.395 355.999 102.381 356.081 102.277C356.902 101.489 357.619 100.619 358.197 99.6394C359.015 98.2857 359.898 96.9559 360.851 95.681C361.039 95.4074 361.224 95.1027 361.378 94.8017C361.422 94.6392 361.469 94.5078 361.513 94.3454C361.537 94.2797 361.53 94.2176 361.554 94.1519C361.607 93.7997 361.222 93.4669 360.729 93.5558ZM394.062 90.714C394.515 90.2837 395.004 90.1638 395.178 90.3009C395.32 90.4417 395.232 90.7665 395.246 90.8907C394.866 91.4069 394.156 92.3389 393.149 93.6832C392.114 95.0621 391.075 96.41 390.037 97.7579C389.735 98.1391 389.516 98.4163 389.351 98.6242C389.159 98.8668 389.077 98.9707 389.077 98.9707C388.583 99.5945 388.089 100.218 387.592 100.811C387.208 101.296 386.824 101.781 386.409 102.27C386.303 102.44 386.162 102.582 386.025 102.755C385.72 103.105 385.449 103.483 385.147 103.864C384.562 104.782 383.942 105.672 383.318 106.531C382.421 107.737 381.561 109.001 380.736 110.292C380.449 110.798 380.127 111.276 379.774 111.757C379.582 112 379.394 112.273 379.205 112.547C379.154 112.647 379.099 112.717 379.017 112.821C378.644 113.399 378.271 113.977 377.897 114.555C377.367 115.404 376.971 116.331 376.68 117.34C376.412 118.283 376.141 119.196 375.901 120.105C375.297 122.22 374.698 124.366 374.129 126.509C374.001 127.027 373.872 127.545 373.744 128.064C373.061 130.849 372.282 133.614 371.433 136.324C370.904 137.99 370.378 139.687 369.91 141.346C369.554 142.614 369.195 143.852 368.805 145.093C368.231 146.921 367.654 148.719 367.045 150.52C366.859 151.077 366.675 151.664 366.488 152.221C366.023 153.628 365.554 155.004 365.054 156.383C364.914 156.809 364.678 157.214 364.373 157.564C364.126 157.876 363.36 157.776 363.165 157.453C362.886 156.95 362.7 156.437 362.663 155.844C362.499 154.164 362.49 152.466 362.702 150.774C362.942 148.512 363.345 146.295 363.937 144.086C364.005 143.858 364.038 143.603 364.106 143.374C364.742 141.004 365.41 138.629 366.174 136.275C367.139 133.489 368.202 130.722 369.368 128.038C370.684 125.022 372.136 122.085 373.788 119.25C373.894 119.08 374 118.91 374.075 118.744C374.307 118.308 374.574 117.899 374.807 117.463C375.84 115.802 376.549 114.052 376.956 112.148C377.635 109.332 378.376 106.508 379.218 103.736C379.509 102.727 379.797 101.687 380.089 100.678C380.116 100.643 380.113 100.612 380.14 100.577C380.201 100.287 380.333 99.7998 380.529 99.0534C380.813 97.982 381.002 97.1735 381.089 96.5657C380.041 98.1034 379.267 99.2946 378.771 100.17C378.771 100.17 378.587 100.475 378.19 101.119C377.793 101.763 377.193 102.556 376.387 103.468C376.078 103.787 375.734 104.079 375.356 104.343C375.064 104.535 374.76 104.633 374.422 104.704C373.285 104.93 372.366 104.062 372.581 102.936C372.605 102.87 372.597 102.808 372.625 102.773C372.685 102.483 372.746 102.193 372.845 101.961C373.07 101.463 373.217 101.1 373.312 100.837C373.411 100.606 373.478 100.377 373.522 100.215C373.574 100.115 373.621 99.9833 373.638 99.8555C373.689 99.7551 373.737 99.6237 373.812 99.4577C374.962 96.9014 379.315 88.6238 381.854 89.0833C382.016 89.1273 382.217 89.2298 382.397 89.429C382.578 89.6282 382.776 89.9827 382.958 90.4648C383.143 90.1602 383.324 89.8245 383.509 89.5198C383.588 89.3848 383.697 89.2462 383.773 89.0802C384.027 88.8304 384.299 88.7358 384.596 88.8585C384.855 88.9227 384.988 89.2533 385.026 89.3118C384.806 90.1239 384.44 91.2992 383.93 92.8686C383.513 94.1442 383.132 95.1953 382.791 96.0529C382.311 97.3358 381.838 98.6807 381.184 100.896C380.98 101.581 380.773 102.234 380.57 102.918C380.359 103.541 380.179 104.159 380 104.778C379.565 106.181 379.373 106.959 379.211 107.733C378.97 109.176 378.821 110.326 378.794 111.179C379.294 110.334 380.013 109.212 380.92 107.817C382.012 106.117 383.475 104.09 385.243 101.714C388.99 96.873 391.928 93.1961 394.062 90.714ZM376.499 101.19C378.272 98.3094 379.913 95.3812 381.446 92.3398C381.518 92.1427 381.589 91.9456 381.626 91.7211C381.65 91.6554 381.643 91.5933 381.601 91.5038C381.562 91.4453 381.458 91.363 381.316 91.2223C381.285 91.2259 381.095 91.2166 380.944 91.2657C379.027 92.3696 377.175 95.9201 376.513 97.2556C376.359 97.5567 374.104 102.507 374.461 102.874C374.496 102.902 374.616 102.856 374.83 102.8C374.799 102.804 375.247 102.594 375.422 102.479C375.852 102.115 376.212 101.695 376.499 101.19ZM373.94 123.259C373.963 123.193 373.987 123.127 374.015 123.093C374.075 122.803 374.14 122.543 374.2 122.253C374.261 121.963 374.287 121.645 374.313 121.328C374.329 121.2 374.315 121.076 374.331 120.948C373.598 121.946 372.969 123.026 372.505 124.181C372.458 124.312 372.41 124.444 372.331 124.579C372.086 125.173 371.806 125.741 371.526 126.308C370.521 128.219 369.648 130.176 368.91 132.213C366.87 137.39 365.317 142.699 364.251 148.14C363.928 149.687 363.733 151.252 363.665 152.833C363.667 153.116 363.672 153.43 363.708 153.74C363.711 153.771 363.715 153.802 363.719 153.833C363.751 154.112 363.897 154.284 364.125 154.352C364.353 154.42 364.532 154.336 364.662 154.101C364.884 153.572 365.105 153.043 365.296 152.517C366.285 149.665 367.205 146.758 368.063 143.858C368.406 142.748 368.749 141.639 369.095 140.56C369.211 140.2 369.322 139.81 369.434 139.419C369.892 137.95 370.323 136.516 370.75 135.05C371.55 132.189 372.318 129.331 373.087 126.473C373.371 125.401 373.655 124.33 373.94 123.259ZM396.499 98.1382C394.229 98.3709 392.286 97.6219 392.366 95.0642C392.392 94.7466 392.429 94.5221 392.476 94.3907C392.916 92.7664 393.833 91.1811 394.257 90.5024C395.007 89.3769 397.351 86.2726 399.918 84.8097C400.245 84.6458 401.171 84.2234 402.204 84.4492C402.433 84.5171 402.633 84.6195 402.807 84.7567C403.326 85.1681 403.247 85.838 403.194 86.1903C403.197 86.2213 403.197 86.2213 403.17 86.256C403.019 87.123 402.454 87.9438 401.478 88.7496C399.53 90.3921 397.038 91.6889 396.198 92.0384C396.139 92.0766 396.023 92.1532 395.816 92.2716C395.61 92.39 395.348 92.5777 395.094 92.8275C394.431 93.3452 394.069 94.0166 394.011 94.8727C393.942 96.1707 394.594 96.9127 396.024 97.0295C396.373 97.0518 396.714 97.0121 397.048 96.9102C398.695 96.4668 400.217 95.7548 401.648 94.8018C402.837 93.9397 404.023 93.0466 405.143 92.1297C406.552 90.9904 407.996 89.8785 409.474 88.7941C409.674 88.6136 409.942 88.4879 410.218 88.4244C410.342 88.4099 410.47 88.4265 410.574 88.5088C410.647 88.5947 410.685 88.6531 410.696 88.7463C410.707 88.8394 410.69 88.9672 410.67 89.0639C410.564 89.2336 410.427 89.4068 410.282 89.518C408.544 91.0732 406.764 92.5388 404.915 93.9496C403.396 95.2275 401.732 96.3336 399.949 97.2333C398.995 97.6904 397.834 97.9829 396.499 98.1382ZM400.79 87.1622C400.878 86.8374 400.884 86.6165 400.838 86.4959C400.873 86.5234 400.72 86.2895 400.492 86.2217C399.783 86.0839 396.937 89.4669 396.244 90.2712C397.057 89.9564 400.455 87.799 400.79 87.1622ZM407.716 98.2798C407.736 98.1831 407.725 98.0899 407.71 97.9658C407.709 97.6828 407.739 97.3962 407.761 97.0475C407.857 96.2498 407.987 95.4796 408.184 94.7331C408.556 93.337 408.959 91.9372 409.332 90.541C409.484 89.957 409.667 89.3694 409.823 88.8164C409.938 88.4569 410.023 88.101 410.107 87.7451C410.355 86.8983 410.571 86.0551 410.822 85.2394C410.962 84.8142 411.198 84.4092 411.503 84.059C411.585 83.955 411.737 83.9059 411.923 83.8843C412.109 83.8626 412.272 83.9066 412.407 83.9853C412.611 84.1188 412.726 84.2942 412.755 84.5425C412.749 84.7634 412.712 84.9879 412.641 85.185C412.46 85.5207 412.31 85.8528 412.159 86.1849C411.848 86.7559 411.572 87.3544 411.358 87.9456C410.861 89.3562 410.458 90.756 410.089 92.1832C409.816 93.3476 409.546 94.5431 409.338 95.7313C409.274 95.9905 409.241 96.2461 409.176 96.5052C409.123 96.8575 409.159 97.1679 409.292 97.4985C409.334 97.588 409.442 97.7013 409.538 97.7215C409.604 97.7454 409.666 97.7381 409.697 97.7345C409.759 97.7273 409.821 97.7201 409.88 97.6818C410.145 97.5251 410.34 97.3136 410.494 97.0125C410.521 96.9779 410.518 96.9469 410.514 96.9158C411.842 94.8106 413.139 92.7091 414.432 90.5765C415.247 89.1918 416.203 87.9479 417.294 86.7827C417.603 86.4636 417.978 86.1683 418.394 85.9625C418.99 85.6729 419.864 85.8858 420.212 86.443C420.414 86.8285 420.62 87.245 420.795 87.6651C420.9 88.0304 421.006 88.3956 421.115 88.7919C421.224 89.1882 421.329 89.5535 421.469 89.9462C421.613 90.3699 421.819 90.7864 422.052 91.1682C422.73 92.1275 423.469 92.2617 424.301 91.5672C424.613 91.2791 424.895 90.9946 425.173 90.6791C425.255 90.5752 425.365 90.4366 425.478 90.329C425.67 90.0864 425.897 89.8713 426.12 89.6251C426.593 89.098 427.067 88.571 427.544 88.075C427.829 87.8216 428.152 87.6267 428.476 87.4317C428.534 87.3935 428.592 87.3552 428.651 87.3169C429.27 86.9617 430.017 87.1579 430.434 87.77C430.56 88.0386 430.72 88.3345 430.846 88.603C430.895 88.7546 430.971 88.8716 431.017 88.9921C431.341 89.6151 432.033 89.8806 432.783 89.573C433.534 89.2654 434.181 88.8755 434.778 88.334C436.016 87.3406 437.326 86.433 438.674 85.5839C439.056 85.3507 439.441 85.1485 439.896 85.0012C440.23 84.8994 440.552 84.9564 440.856 85.1411C441.061 85.2746 441.148 85.4847 441.115 85.7403C441.095 85.837 441.047 85.9684 440.957 86.0103C440.696 86.198 440.4 86.3583 440.07 86.4911C438.762 87.1468 437.53 87.9193 436.379 88.8399C435.313 89.6875 434.21 90.4766 433.071 91.2384C432.573 91.5481 432.067 91.7958 431.519 91.9539C431.06 92.0702 430.67 91.9584 430.285 91.6256C429.966 91.3167 429.702 90.9385 429.496 90.522C429.377 90.3155 429.263 90.1401 429.144 89.9337C428.884 89.5865 428.283 89.562 427.939 89.8537C427.857 89.9577 427.802 90.027 427.716 90.0999C427.545 90.2457 427.376 90.4226 427.208 90.5995C426.954 90.8493 426.735 91.1265 426.484 91.4074C426.121 91.7958 425.76 92.2152 425.397 92.6036C425.088 92.9228 424.779 93.2419 424.401 93.5061C424.108 93.6975 423.812 93.8577 423.478 93.9596C422.899 94.1213 422.384 94.024 421.927 93.6053C421.608 93.2964 421.316 92.9528 421.052 92.5746C420.405 91.6117 419.94 90.596 419.624 89.5003C419.568 89.2866 419.477 89.0455 419.389 88.8354C419.347 88.7459 419.302 88.6254 419.26 88.5359C419.062 88.1815 418.415 88.0364 418.068 88.2971C418.01 88.3353 417.955 88.4047 417.865 88.4465C417.749 88.5231 417.635 88.6306 417.553 88.7346C415.968 90.5236 414.584 92.4151 413.345 94.4784C412.771 95.4891 412.192 96.4688 411.614 97.4484C411.508 97.6181 411.406 97.8188 411.269 97.992C410.93 98.5977 410.519 99.1175 410.038 99.5825C409.671 99.9399 409.278 100.08 408.798 100.01C408.338 99.8433 408.05 99.5308 407.903 99.076C407.854 98.9244 407.804 98.7728 407.783 98.5866C407.772 98.4935 407.761 98.4003 407.716 98.2798ZM442.377 92.7979C440.107 93.0306 438.164 92.2816 438.244 89.7239C438.27 89.4063 438.306 89.1818 438.354 89.0504C438.794 87.4261 439.711 85.8408 440.135 85.1621C440.885 84.0366 443.229 80.9323 445.796 79.4694C446.123 79.3055 447.049 78.8831 448.082 79.1089C448.31 79.1768 448.511 79.2792 448.684 79.4164C449.204 79.8278 449.125 80.4977 449.071 80.85C449.075 80.881 449.075 80.881 449.048 80.9157C448.897 81.7827 448.332 82.6035 447.356 83.4093C445.408 85.0518 442.916 86.3486 442.076 86.6981C442.017 86.7363 441.9 86.8129 441.694 86.9313C441.487 87.0497 441.226 87.2374 440.972 87.4872C440.309 88.0049 439.946 88.6763 439.889 89.5324C439.82 90.8304 440.472 91.5724 441.902 91.6892C442.25 91.7115 442.592 91.6718 442.926 91.5699C444.573 91.1265 446.095 90.4145 447.525 89.4615C448.715 88.5994 449.901 87.7063 451.021 86.7894C452.43 85.6501 453.874 84.5382 455.352 83.4538C455.551 83.2733 455.82 83.1476 456.096 83.0841C456.22 83.0696 456.348 83.0862 456.451 83.1685C456.524 83.2544 456.563 83.3128 456.573 83.406C456.584 83.4991 456.568 83.6269 456.548 83.7236C456.441 83.8933 456.304 84.0665 456.16 84.1777C454.422 85.7329 452.642 87.1985 450.793 88.6093C449.274 89.8872 447.609 90.9933 445.826 91.893C444.873 92.3501 443.711 92.6426 442.377 92.7979ZM446.668 81.8219C446.756 81.4971 446.761 81.2762 446.716 81.1556C446.751 81.1831 446.598 80.9492 446.369 80.8814C445.661 80.7436 442.815 84.1266 442.122 84.9309C442.934 84.6161 446.333 82.4587 446.668 81.8219ZM495.366 43.6855C492.077 53.5382 489.244 64.8792 486.868 77.7088C484.452 91.5497 483.33 104.076 483.098 115.051C483.121 115.521 482.878 115.864 482.485 116.004C482.003 116.186 481.432 115.875 481.235 115.268C481.591 103.995 482.859 91.1059 485.491 76.9568C487.903 64.4376 490.757 53.2828 494.023 43.4958C494.199 42.8461 494.694 42.5053 494.988 42.597C495.25 42.6922 495.46 43.1398 495.366 43.6855ZM471.075 87.4438C470.199 87.4829 469.332 87.3322 468.976 87.2477C468.288 87.0132 467.824 86.8155 467.582 86.6235C467.004 86.2503 466.511 85.8043 466.07 85.2579C465.771 84.8522 465.472 84.4466 465.139 84.0135C464.913 83.6937 464.69 83.405 464.464 83.0852C464.284 82.886 464.1 82.6557 463.919 82.4565C463.885 82.4291 463.815 82.3742 463.777 82.3158C463.316 81.8661 462.401 81.8467 461.917 82.2806C461.858 82.3189 461.8 82.3572 461.741 82.3954C461.628 82.503 461.515 82.6106 461.401 82.7181C460.379 83.9383 459.527 85.2644 458.813 86.7004C458.557 87.2021 458.304 87.7349 458.048 88.2366C457.843 88.638 457.638 89.0394 457.464 89.4372C456.884 90.6688 456.203 91.8491 455.423 92.9782C455.2 93.2244 454.938 93.4122 454.608 93.545C454.277 93.6779 453.914 93.5314 453.719 93.208C453.528 92.9157 453.457 92.5778 453.479 92.2292C453.57 91.1175 453.785 89.9913 454.069 88.92C454.266 88.1735 454.493 87.4235 454.689 86.677C455.001 85.5711 455.312 84.4651 455.621 83.3281C455.716 83.0653 455.811 82.8026 455.872 82.5124C456.262 81.2714 456.587 80.0066 456.849 78.7491C456.974 78.1997 457.13 77.6467 457.286 77.0938C457.958 75.0334 458.441 72.9637 458.727 70.8226C458.786 70.2494 458.945 69.7275 459.233 69.2221C459.425 68.9796 459.848 68.8359 460.146 68.9585C460.242 68.9787 460.346 69.061 460.392 69.1816C460.494 69.5158 460.561 69.8226 460.57 70.1676C460.564 70.3885 460.527 70.613 460.456 70.8101C460.007 72.0894 459.624 73.3924 459.306 74.7192C459.15 75.2722 459.026 75.8216 458.87 76.3746C458.226 78.6832 457.579 80.9608 456.9 83.2421C456.307 85.1674 455.813 87.144 455.451 89.1682C455.421 89.4547 455.529 89.5681 455.781 89.5702C455.874 89.5594 455.964 89.5175 456.046 89.4135C457.003 87.6347 457.987 85.8212 458.944 84.0424C459.539 82.9349 460.303 81.9336 461.213 81.104C461.553 80.7813 461.932 80.5171 462.317 80.3149C463.002 79.9835 463.637 80.0354 464.254 80.467C464.632 80.7376 464.951 81.0466 465.215 81.4248C465.403 81.6861 465.594 81.9784 465.789 82.3018C465.904 82.4772 466.018 82.6526 466.133 82.828C466.175 82.9175 466.213 82.976 466.252 83.0345C466.523 83.4748 466.787 83.853 467.083 84.2276C467.455 84.7192 468.135 85.4265 469.224 85.866C469.967 86.0313 470.92 86.1091 472.253 85.6708C475.851 84.1508 479.76 78.0013 482.963 71.4621C484.568 68.2236 485.872 65.3662 486.877 62.9211C487.882 60.4759 488.369 59.2552 488.369 59.2552C490.129 54.6458 492.165 49.1549 494.447 42.8172C494.555 42.9305 494.631 43.0475 494.739 43.1608C494.846 43.2741 494.923 43.3911 495.03 43.5044C492.337 52.5325 489.618 59.7077 487.439 64.7748C487.415 64.8405 484.771 70.7797 481.93 75.8296C478.671 81.6202 474.689 86.8659 471.075 87.4438ZM471.752 59.7423C471.462 59.6817 471.319 59.541 471.259 59.2963C471.234 59.079 471.395 58.84 471.391 58.809C481.762 56.2804 489.273 54.5881 493.924 53.7321C498.595 52.7794 505.188 51.5716 513.732 50.1051C514.131 50.0271 514.442 49.991 514.639 50.0624C514.805 50.1375 514.885 50.2855 514.81 50.4515C514.68 50.6869 514.274 50.9858 513.699 51.1786C500.78 53.4375 490.169 55.5221 481.83 57.4051C478.028 58.2566 474.657 59.0266 471.752 59.7423ZM494.584 85.6197C494.401 84.8545 494.966 84.0336 495.697 83.8228C496.286 83.7541 496.938 84.2132 497.103 84.8231C497.224 85.5955 496.694 86.4438 495.96 86.6236C495.37 86.6923 494.75 86.2296 494.584 85.6197Z" fill="url(#paint0_linear_2002_241)"/>
<defs>
<linearGradient id="paint0_linear_2002_241" x1="129.389" y1="-132.057" x2="620.87" y2="202.497" gradientUnits="userSpaceOnUse">
<stop stop-color="#0621AF"/>
<stop offset="1" stop-color="#007BFF"/>
</linearGradient>
</defs>
</svg>
