<svg width="463" height="54" viewBox="0 0 463 54" fill="none" xmlns="http://www.w3.org/2000/svg">
<path d="M43.0559 1.94399C43.3439 5.68799 43.7759 10.152 44.2079 13.896C44.2799 14.4 44.0639 14.616 43.4879 14.76C42.8399 14.904 42.6239 14.76 42.3359 14.256C40.6799 10.584 38.8079 7.70399 36.2159 5.61599C33.4799 3.59999 29.8079 2.51999 26.5679 2.51999C15.8399 2.51999 7.9919 12.096 7.9919 26.784C7.9919 39.816 15.9839 49.824 27.0719 49.824C35.2799 49.824 40.6079 46.512 44.7839 39.888C45.0719 39.528 45.3599 39.384 46.2239 39.816C46.8719 40.104 47.0159 40.536 46.7279 41.112C42.6239 48.528 36.4319 53.928 26.0639 53.928C10.9439 53.928 -9.76026e-05 42.912 -9.76026e-05 26.928C-9.76026e-05 11.304 11.0159 0.0719886 26.2799 0.0719886C29.5919 0.0719886 32.3999 0.503992 35.0639 1.15199C37.7999 2.01599 39.8879 2.37599 43.0559 1.94399ZM82.2245 41.688L79.1285 32.832C76.6805 32.688 73.5845 32.544 70.8485 32.544C67.8965 32.544 65.0165 32.688 61.8485 32.832L58.9685 40.752C57.4565 44.856 57.1685 47.304 57.8165 48.888C58.4645 50.328 60.9125 50.616 63.5765 50.904C64.0085 50.976 64.2245 51.12 64.2245 51.84C64.2245 52.632 64.0805 52.776 63.5045 52.776C60.8405 52.632 57.3125 52.56 54.7205 52.56C52.2005 52.56 49.6805 52.56 47.3765 52.776C46.8005 52.776 46.6565 52.632 46.6565 51.84C46.6565 51.12 46.8005 50.976 47.3765 50.904C49.3925 50.616 50.5445 49.968 51.4805 49.032C52.8485 47.592 54.1445 44.64 55.8005 40.464L64.3685 17.64C67.8965 8.06399 68.6165 6.04799 69.6965 2.37599L74.3045 0.143988C74.6645 0.143988 74.9525 0.215991 75.0965 0.719989C76.4645 5.18399 77.6165 8.78399 80.7845 18L88.9205 41.04C90.3605 45.144 91.3685 47.664 92.4485 49.104C93.6005 50.544 94.8965 50.688 97.4885 50.904C98.1365 50.976 98.2805 51.12 98.2805 51.84C98.2805 52.632 98.1365 52.776 97.4885 52.776C94.6085 52.632 90.7205 52.56 87.8405 52.56C85.1045 52.56 81.2885 52.632 78.4085 52.776C77.9045 52.776 77.7605 52.632 77.7605 51.84C77.7605 51.12 77.9045 50.976 78.4085 50.904C80.7845 50.688 83.0885 50.544 83.5925 49.104C84.1685 47.52 83.5925 45.504 82.2245 41.688ZM78.1925 29.952L74.0885 18.072C72.4325 13.392 71.6405 10.872 70.7045 8.20799C69.7685 10.872 68.8325 13.464 67.1765 18L62.8565 29.952C65.3765 30.096 68.1845 30.096 70.8485 30.096C73.2245 30.096 75.9605 30.096 78.1925 29.952ZM117.164 29.016L113.78 27.288C106.58 23.616 102.62 20.088 102.62 12.816C102.62 5.90399 108.524 -1.04904e-05 117.884 -1.04904e-05C120.116 -1.04904e-05 122.276 0.359989 124.22 1.00799C126.38 1.58399 129.116 1.72799 131.204 1.36799C131.276 4.96799 131.708 9.14399 131.996 12.888C131.996 13.248 131.852 13.464 131.132 13.608C130.484 13.68 130.34 13.464 130.268 13.104C127.892 6.40799 123.428 2.30399 118.028 2.30399C112.484 2.30399 109.028 6.11999 109.028 11.232C109.028 14.76 110.756 17.928 117.092 20.952L120.764 22.68C129.188 26.64 134.156 30.24 134.156 38.664C134.156 47.016 128.684 53.928 116.084 53.928C111.764 53.928 107.156 52.848 103.124 51.408C102.044 47.52 101.252 43.344 100.748 39.816C100.748 39.456 100.82 39.096 101.468 38.952C102.26 38.808 102.476 39.024 102.62 39.384C105.572 46.728 111.044 51.624 116.876 51.624C123.716 51.624 127.676 47.016 127.676 41.472C127.676 35.64 124.22 32.616 117.164 29.016ZM154.502 26.928V39.672C154.502 42.696 154.43 46.656 155.51 48.312C156.662 50.184 159.398 50.256 162.638 50.256C169.766 50.256 172.934 49.032 175.166 47.304C177.47 45.648 179.27 42.624 180.71 40.032C180.926 39.6 181.07 39.384 181.79 39.6C182.654 39.888 182.654 40.176 182.51 40.608C181.718 44.352 180.278 49.104 178.766 52.776C172.574 52.56 166.454 52.488 160.622 52.488C154.502 52.488 147.878 52.56 141.758 52.776C141.326 52.776 141.182 52.56 141.182 51.84C141.182 51.12 141.326 50.976 141.758 50.904C144.278 50.616 146.006 50.544 146.87 49.176C147.734 47.592 147.734 44.424 147.734 39.672V14.112C147.734 7.27199 147.734 6.40799 146.942 4.82399C146.15 3.52799 144.134 3.45599 141.398 3.16799C140.894 3.09599 140.75 3.02399 140.75 2.30399C140.75 1.36799 140.894 1.15199 141.398 1.15199C147.374 1.51199 153.782 1.51199 159.686 1.51199C165.374 1.51199 171.278 1.51199 177.47 1.15199C177.758 4.82399 178.19 9.21599 178.694 12.816C178.766 13.248 178.622 13.536 178.046 13.68C177.182 13.824 176.966 13.608 176.822 13.176C175.958 10.584 174.014 7.41599 172.142 6.04799C170.198 4.31999 167.102 3.74399 161.414 3.74399C158.678 3.74399 156.23 3.88799 155.222 5.54399C154.358 6.98399 154.502 10.296 154.502 14.112V24.408C155.654 24.48 157.382 24.48 158.966 24.48C163.502 24.48 166.958 24.12 168.254 22.968C169.91 21.816 170.342 20.016 170.63 18.288C170.702 17.856 170.774 17.64 171.494 17.64C172.43 17.64 172.502 17.856 172.502 18.288C172.43 20.808 172.358 23.112 172.358 25.56C172.358 28.224 172.43 31.104 172.502 33.696C172.502 34.2 172.43 34.416 171.494 34.416C170.846 34.416 170.702 34.128 170.63 33.696C170.342 32.112 169.766 29.448 168.11 28.368C166.814 27.504 163.43 26.856 158.966 26.856C157.382 26.856 155.654 26.856 154.502 26.928ZM228.046 29.016L224.662 27.288C217.462 23.616 213.502 20.088 213.502 12.816C213.502 5.90399 219.406 -1.04904e-05 228.766 -1.04904e-05C230.998 -1.04904e-05 233.158 0.359989 235.102 1.00799C237.262 1.58399 239.998 1.72799 242.086 1.36799C242.158 4.96799 242.59 9.14399 242.878 12.888C242.878 13.248 242.734 13.464 242.014 13.608C241.366 13.68 241.222 13.464 241.15 13.104C238.774 6.40799 234.31 2.30399 228.91 2.30399C223.366 2.30399 219.91 6.11999 219.91 11.232C219.91 14.76 221.638 17.928 227.974 20.952L231.646 22.68C240.07 26.64 245.038 30.24 245.038 38.664C245.038 47.016 239.566 53.928 226.966 53.928C222.646 53.928 218.038 52.848 214.006 51.408C212.926 47.52 212.134 43.344 211.63 39.816C211.63 39.456 211.702 39.096 212.35 38.952C213.142 38.808 213.358 39.024 213.502 39.384C216.454 46.728 221.926 51.624 227.758 51.624C234.598 51.624 238.558 47.016 238.558 41.472C238.558 35.64 235.102 32.616 228.046 29.016ZM271.001 39.672V14.112C271.001 7.55999 270.929 6.47999 270.209 5.03999C269.489 3.74399 267.401 3.74399 265.601 3.74399C262.289 3.74399 259.121 4.31999 257.177 5.97599C255.089 7.48799 253.289 10.872 252.353 13.392C252.209 13.824 251.993 14.04 251.273 13.896C250.553 13.752 250.481 13.536 250.481 13.032C250.985 9.43199 251.489 4.82399 251.777 1.15199C259.697 1.51199 267.041 1.51199 274.457 1.51199C281.801 1.51199 289.433 1.51199 297.353 1.15199C297.641 4.82399 298.145 9.43199 298.577 13.032C298.577 13.536 298.505 13.752 297.857 13.896C296.993 14.04 296.849 13.824 296.705 13.392C295.841 10.872 294.113 7.55999 291.953 5.97599C290.081 4.31999 286.913 3.74399 283.313 3.74399C281.513 3.74399 279.641 3.59999 278.633 5.18399C277.625 6.69599 277.697 10.008 277.697 14.112V39.672C277.697 46.8 277.625 47.592 278.489 49.104C279.281 50.472 281.729 50.544 284.321 50.832C284.825 50.904 284.969 51.048 284.969 51.768C284.969 52.56 284.825 52.776 284.321 52.776C281.297 52.56 277.265 52.488 274.385 52.488C271.433 52.488 267.689 52.56 264.953 52.776C264.449 52.776 264.305 52.56 264.305 51.84C264.305 51.048 264.449 50.904 264.953 50.832C267.329 50.544 269.417 50.472 270.209 49.104C271.073 47.448 271.001 44.424 271.001 39.672ZM346.297 22.968L346.153 14.04C346.081 9.93599 345.793 6.69599 344.929 5.18399C344.137 3.74399 341.905 3.45599 339.385 3.16799C338.881 3.09599 338.809 3.02399 338.809 2.23199C338.809 1.29599 338.881 1.15199 339.385 1.15199C342.265 1.29599 345.217 1.51199 347.809 1.51199C350.329 1.51199 353.281 1.29599 355.945 1.15199C356.449 1.15199 356.593 1.29599 356.593 2.23199C356.593 3.02399 356.449 3.09599 355.945 3.16799C353.569 3.45599 351.913 3.81599 350.977 5.25599C349.969 6.91199 349.609 10.08 349.537 14.04L349.465 22.968C349.393 27.504 349.321 31.968 349.321 36.144C349.321 41.76 347.449 46.296 343.849 49.32C340.393 52.272 336.289 53.928 330.385 53.928C323.041 53.928 317.785 51.696 314.185 48.312C311.233 45.504 309.937 42.12 309.937 37.224C309.937 32.976 310.081 27.936 310.081 23.256V14.04C310.081 7.34399 310.081 6.47999 309.289 4.96799C308.425 3.52799 306.409 3.45599 303.673 3.16799C303.169 3.09599 303.025 3.02399 303.025 2.23199C303.025 1.29599 303.169 1.15199 303.673 1.15199C306.625 1.36799 310.369 1.51199 313.249 1.51199C316.273 1.51199 320.017 1.36799 322.897 1.15199C323.401 1.15199 323.545 1.29599 323.545 2.23199C323.545 3.02399 323.401 3.09599 322.897 3.16799C320.377 3.45599 318.433 3.45599 317.641 4.96799C316.777 6.55199 316.777 9.71999 316.777 14.04V23.4C316.777 26.496 316.705 29.808 316.705 32.904C316.705 39.168 317.065 43.056 320.233 45.936C323.041 48.744 327.433 49.896 330.961 49.896C335.857 49.896 339.745 48.888 342.697 45.864C345.145 43.488 346.297 40.176 346.297 34.776C346.297 31.248 346.369 27.648 346.297 22.968ZM368.799 39.672V14.04C368.799 7.27199 368.799 6.33599 368.079 4.82399C367.287 3.52799 364.983 3.45599 362.247 3.16799C361.743 3.09599 361.599 3.09599 361.599 2.23199C361.599 1.36799 361.743 1.15199 362.247 1.15199C365.199 1.36799 368.223 1.43999 371.391 1.43999C374.919 1.43999 380.967 1.00799 385.647 1.00799C405.303 1.00799 415.167 11.232 415.167 26.424C415.167 41.76 404.871 52.92 385.071 52.92C380.895 52.92 375.783 52.488 371.535 52.488C368.367 52.488 365.343 52.56 362.679 52.776C362.175 52.776 362.031 52.56 362.031 51.84C362.031 51.12 362.175 50.976 362.679 50.904C365.127 50.688 367.215 50.472 368.079 49.104C368.871 47.592 368.799 44.424 368.799 39.672ZM375.567 14.04V39.672C375.567 43.704 375.495 46.8 376.719 48.312C378.087 50.04 381.111 50.472 384.927 50.472C400.047 50.472 407.463 40.752 407.463 26.712C407.463 12.6 399.543 3.52799 385.431 3.52799C380.463 3.52799 377.439 3.95999 376.503 5.39999C375.495 6.83999 375.567 9.86399 375.567 14.04ZM434.981 39.6V31.968C434.981 30.96 434.909 29.952 434.909 29.016C433.829 27.288 433.037 25.848 431.957 24.12L425.261 13.032C422.669 8.63999 421.301 6.40799 419.933 4.96799C418.493 3.59999 417.413 3.31199 415.037 3.09599C414.605 3.02399 414.461 2.95199 414.461 2.23199C414.461 1.29599 414.605 1.15199 415.037 1.15199C418.133 1.36799 421.517 1.51199 424.469 1.51199C427.349 1.51199 430.949 1.36799 433.901 1.15199C434.333 1.15199 434.477 1.29599 434.477 2.23199C434.477 2.95199 434.333 3.02399 433.901 3.09599C431.525 3.38399 429.581 3.52799 429.293 4.89599C428.861 6.47999 429.725 7.63199 431.309 10.512L437.861 21.6C438.869 23.184 439.517 24.264 440.381 25.632C441.101 24.48 441.749 23.4 442.613 21.816L448.589 11.016C450.533 7.63199 450.965 6.55199 450.461 5.03999C449.885 3.59999 448.157 3.38399 445.637 3.09599C445.133 3.02399 444.989 2.95199 444.989 2.23199C444.989 1.29599 445.061 1.15199 445.709 1.15199C448.373 1.29599 451.541 1.51199 454.277 1.51199C456.941 1.51199 459.245 1.29599 461.981 1.15199C462.413 1.15199 462.557 1.29599 462.557 2.23199C462.557 2.95199 462.413 3.02399 461.909 3.09599C460.037 3.31199 458.381 3.88799 456.869 5.03999C455.429 6.26399 454.205 7.99199 451.397 12.6L444.701 23.472C443.549 25.416 442.685 26.712 441.677 28.368C441.677 29.304 441.605 30.96 441.605 32.04V39.6C441.605 46.8 441.605 47.736 442.325 49.176C443.117 50.616 445.421 50.688 448.229 50.976C448.661 51.048 448.805 51.192 448.805 51.912C448.805 52.632 448.661 52.776 448.229 52.776C444.917 52.632 441.245 52.488 438.293 52.488C435.341 52.488 431.813 52.632 429.005 52.776C428.357 52.776 428.285 52.632 428.285 51.912C428.285 51.192 428.429 51.048 429.005 50.976C431.453 50.688 433.325 50.616 434.117 49.176C435.053 47.592 434.981 44.424 434.981 39.6Z" fill="white"/>
</svg>
