<svg width="331" height="54" viewBox="0 0 331 54" fill="none" xmlns="http://www.w3.org/2000/svg">
<path d="M13.896 27.9362V39.5282C13.896 46.6562 13.968 47.6642 14.688 49.1042C15.552 50.5442 17.568 50.5442 20.232 50.8322C20.808 50.9042 20.952 51.0482 20.952 51.8402C20.952 52.4882 20.808 52.7042 20.232 52.7042C17.136 52.5602 13.608 52.4162 10.656 52.4162C7.77596 52.4162 4.10396 52.5602 1.29596 52.7042C0.719959 52.7042 0.575959 52.4882 0.575959 51.8402C0.575959 51.0482 0.719959 50.9042 1.29596 50.8322C3.74396 50.5442 5.75996 50.4722 6.55196 49.1042C7.41596 47.5202 7.41596 44.2802 7.41596 39.5282V13.9682C7.41596 7.12821 7.41596 6.33621 6.62396 4.82421C5.83196 3.38421 3.31196 3.31221 0.575959 3.02421C0.143959 2.95221 -4.0859e-05 2.88021 -4.0859e-05 2.16021C-4.0859e-05 1.22421 0.143959 1.08021 0.575959 1.08021C3.67196 1.22421 7.41596 1.36821 10.296 1.36821C12.888 1.36821 17.424 1.00821 22.104 1.00821C35.28 1.00821 40.536 6.76821 40.536 14.1122C40.536 19.4402 37.08 24.6962 28.944 26.9282C31.824 32.4722 35.136 38.3762 38.952 44.4242C40.536 47.0162 41.832 48.9602 43.272 49.8242C44.496 50.4722 45.792 50.6162 47.664 50.8322C48.096 50.9042 48.24 51.0482 48.24 51.7682C48.24 52.5602 48.024 52.7042 47.592 52.7042C44.928 52.5602 42.84 52.4162 40.752 52.4162C38.88 52.4162 37.512 52.4162 35.352 52.4882C34.632 50.6882 33.696 48.7442 32.688 46.9442C29.16 40.6082 25.704 34.3442 22.248 28.0082C21.384 28.0802 20.088 28.1522 19.08 28.1522C17.28 28.1522 15.624 28.0802 13.896 27.9362ZM13.896 13.9682V25.4882C15.48 25.7042 17.28 25.8482 19.08 25.8482C29.304 25.8482 33.12 20.7362 33.12 14.5442C33.12 7.48821 29.232 3.45621 20.592 3.45621C18.216 3.45621 15.768 3.38421 14.832 4.82421C13.824 6.26421 13.896 10.0082 13.896 13.9682ZM64.2448 26.8562V39.6002C64.2448 42.6242 64.1728 46.5842 65.2528 48.2402C66.4048 50.1122 69.1408 50.1842 72.3808 50.1842C79.5088 50.1842 82.6768 48.9602 84.9088 47.2322C87.2128 45.5762 89.0128 42.5522 90.4528 39.9602C90.6688 39.5282 90.8128 39.3122 91.5328 39.5282C92.3968 39.8162 92.3968 40.1042 92.2528 40.5362C91.4608 44.2802 90.0208 49.0322 88.5088 52.7042C82.3168 52.4882 76.1968 52.4162 70.3648 52.4162C64.2448 52.4162 57.6208 52.4882 51.5008 52.7042C51.0688 52.7042 50.9248 52.4882 50.9248 51.7682C50.9248 51.0482 51.0688 50.9042 51.5008 50.8322C54.0208 50.5442 55.7488 50.4722 56.6128 49.1042C57.4768 47.5202 57.4768 44.3522 57.4768 39.6002V14.0402C57.4768 7.20021 57.4768 6.33621 56.6848 4.75221C55.8928 3.45621 53.8768 3.38421 51.1408 3.09621C50.6368 3.02421 50.4928 2.95221 50.4928 2.23221C50.4928 1.29621 50.6368 1.08021 51.1408 1.08021C57.1168 1.44021 63.5248 1.44021 69.4288 1.44021C75.1168 1.44021 81.0208 1.44021 87.2128 1.08021C87.5008 4.75221 87.9328 9.14421 88.4368 12.7442C88.5088 13.1762 88.3648 13.4642 87.7888 13.6082C86.9248 13.7522 86.7088 13.5362 86.5648 13.1042C85.7008 10.5122 83.7568 7.34421 81.8848 5.97621C79.9408 4.24821 76.8448 3.67221 71.1568 3.67221C68.4208 3.67221 65.9728 3.81621 64.9648 5.47221C64.1008 6.91221 64.2448 10.2242 64.2448 14.0402V24.3362C65.3968 24.4082 67.1248 24.4082 68.7088 24.4082C73.2448 24.4082 76.7008 24.0482 77.9968 22.8962C79.6528 21.7442 80.0848 19.9442 80.3728 18.2162C80.4448 17.7842 80.5168 17.5682 81.2368 17.5682C82.1728 17.5682 82.2448 17.7842 82.2448 18.2162C82.1728 20.7362 82.1008 23.0402 82.1008 25.4882C82.1008 28.1522 82.1728 31.0322 82.2448 33.6242C82.2448 34.1282 82.1728 34.3442 81.2368 34.3442C80.5888 34.3442 80.4448 34.0562 80.3728 33.6242C80.0848 32.0402 79.5088 29.3762 77.8528 28.2962C76.5568 27.4322 73.1728 26.7842 68.7088 26.7842C67.1248 26.7842 65.3968 26.7842 64.2448 26.8562ZM140.884 1.87221C141.172 5.61621 141.604 10.0802 142.036 13.8242C142.108 14.3282 141.892 14.5442 141.316 14.6882C140.668 14.8322 140.452 14.6882 140.164 14.1842C138.508 10.5122 136.636 7.63221 134.044 5.54421C131.308 3.52821 127.636 2.44821 124.396 2.44821C113.668 2.44821 105.82 12.0242 105.82 26.7122C105.82 39.7442 113.812 49.7522 124.9 49.7522C133.108 49.7522 138.436 46.4402 142.612 39.8162C142.9 39.4562 143.188 39.3122 144.052 39.7442C144.7 40.0322 144.844 40.4642 144.556 41.0402C140.452 48.4562 134.26 53.8562 123.892 53.8562C108.772 53.8562 97.8283 42.8402 97.8283 26.8562C97.8283 11.2322 108.844 0.000211239 124.108 0.000211239C127.42 0.000211239 130.228 0.432214 132.892 1.08021C135.628 1.94421 137.716 2.30421 140.884 1.87221ZM162.396 27.9362V39.5282C162.396 46.6562 162.468 47.6642 163.188 49.1042C164.052 50.5442 166.068 50.5442 168.732 50.8322C169.308 50.9042 169.452 51.0482 169.452 51.8402C169.452 52.4882 169.308 52.7042 168.732 52.7042C165.636 52.5602 162.108 52.4162 159.156 52.4162C156.276 52.4162 152.604 52.5602 149.796 52.7042C149.22 52.7042 149.076 52.4882 149.076 51.8402C149.076 51.0482 149.22 50.9042 149.796 50.8322C152.244 50.5442 154.26 50.4722 155.052 49.1042C155.916 47.5202 155.916 44.2802 155.916 39.5282V13.9682C155.916 7.12821 155.916 6.33621 155.124 4.82421C154.332 3.38421 151.812 3.31221 149.076 3.02421C148.644 2.95221 148.5 2.88021 148.5 2.16021C148.5 1.22421 148.644 1.08021 149.076 1.08021C152.172 1.22421 155.916 1.36821 158.796 1.36821C161.388 1.36821 165.924 1.00821 170.604 1.00821C183.78 1.00821 189.036 6.76821 189.036 14.1122C189.036 19.4402 185.58 24.6962 177.444 26.9282C180.324 32.4722 183.636 38.3762 187.452 44.4242C189.036 47.0162 190.332 48.9602 191.772 49.8242C192.996 50.4722 194.292 50.6162 196.164 50.8322C196.596 50.9042 196.74 51.0482 196.74 51.7682C196.74 52.5602 196.524 52.7042 196.092 52.7042C193.428 52.5602 191.34 52.4162 189.252 52.4162C187.38 52.4162 186.012 52.4162 183.852 52.4882C183.132 50.6882 182.196 48.7442 181.188 46.9442C177.66 40.6082 174.204 34.3442 170.748 28.0082C169.884 28.0802 168.588 28.1522 167.58 28.1522C165.78 28.1522 164.124 28.0802 162.396 27.9362ZM162.396 13.9682V25.4882C163.98 25.7042 165.78 25.8482 167.58 25.8482C177.804 25.8482 181.62 20.7362 181.62 14.5442C181.62 7.48821 177.732 3.45621 169.092 3.45621C166.716 3.45621 164.268 3.38421 163.332 4.82421C162.324 6.26421 162.396 10.0082 162.396 13.9682ZM241.977 22.8962L241.833 13.9682C241.761 9.86421 241.473 6.62421 240.609 5.11221C239.817 3.67221 237.585 3.38421 235.065 3.09621C234.561 3.02421 234.489 2.95221 234.489 2.16021C234.489 1.22421 234.561 1.08021 235.065 1.08021C237.945 1.22421 240.897 1.44021 243.489 1.44021C246.009 1.44021 248.961 1.22421 251.625 1.08021C252.129 1.08021 252.273 1.22421 252.273 2.16021C252.273 2.95221 252.129 3.02421 251.625 3.09621C249.249 3.38421 247.593 3.74421 246.657 5.18421C245.649 6.84021 245.289 10.0082 245.217 13.9682L245.145 22.8962C245.073 27.4322 245.001 31.8962 245.001 36.0722C245.001 41.6882 243.129 46.2242 239.529 49.2482C236.073 52.2002 231.969 53.8562 226.065 53.8562C218.721 53.8562 213.465 51.6242 209.865 48.2402C206.913 45.4322 205.617 42.0482 205.617 37.1522C205.617 32.9042 205.761 27.8642 205.761 23.1842V13.9682C205.761 7.27221 205.761 6.40821 204.969 4.89621C204.105 3.45621 202.089 3.38421 199.353 3.09621C198.849 3.02421 198.705 2.95221 198.705 2.16021C198.705 1.22421 198.849 1.08021 199.353 1.08021C202.305 1.29621 206.049 1.44021 208.929 1.44021C211.953 1.44021 215.697 1.29621 218.577 1.08021C219.081 1.08021 219.225 1.22421 219.225 2.16021C219.225 2.95221 219.081 3.02421 218.577 3.09621C216.057 3.38421 214.113 3.38421 213.321 4.89621C212.457 6.48021 212.457 9.64821 212.457 13.9682V23.3282C212.457 26.4242 212.385 29.7362 212.385 32.8322C212.385 39.0962 212.745 42.9842 215.913 45.8642C218.721 48.6722 223.113 49.8242 226.641 49.8242C231.537 49.8242 235.425 48.8162 238.377 45.7922C240.825 43.4162 241.977 40.1042 241.977 34.7042C241.977 31.1762 242.049 27.5762 241.977 22.8962ZM271.03 14.0402V39.6002C271.03 46.7282 270.958 47.7362 271.822 49.1042C272.614 50.4722 274.774 50.5442 277.51 50.8322C278.014 50.9042 278.158 51.0482 278.158 51.7682C278.158 52.4882 278.014 52.7042 277.438 52.7042C274.342 52.5602 270.598 52.4162 267.574 52.4162C264.766 52.4162 261.094 52.5602 258.286 52.7042C257.854 52.7042 257.71 52.4882 257.71 51.7682C257.71 51.0482 257.854 50.9042 258.286 50.8322C260.734 50.5442 262.606 50.5442 263.47 49.1042C264.478 47.5202 264.406 44.4242 264.406 39.6002V14.0402C264.406 7.20021 264.406 6.40821 263.542 4.82421C262.75 3.45621 260.662 3.38421 257.926 3.09621C257.494 3.02421 257.35 2.95221 257.35 2.16021C257.35 1.29621 257.494 1.08021 257.926 1.08021C260.95 1.29621 264.766 1.51221 267.574 1.51221C270.598 1.51221 274.27 1.29621 277.15 1.08021C277.654 1.08021 277.798 1.29621 277.798 2.23221C277.798 2.95221 277.582 3.02421 277.15 3.09621C274.63 3.38421 272.758 3.45621 271.894 4.82421C270.958 6.48021 271.03 9.64821 271.03 14.0402ZM303.369 39.6002V14.0402C303.369 7.48821 303.297 6.40821 302.577 4.96821C301.857 3.67221 299.769 3.67221 297.969 3.67221C294.657 3.67221 291.489 4.24821 289.545 5.90421C287.457 7.41621 285.657 10.8002 284.721 13.3202C284.577 13.7522 284.361 13.9682 283.641 13.8242C282.921 13.6802 282.849 13.4642 282.849 12.9602C283.353 9.36021 283.857 4.75221 284.145 1.08021C292.065 1.44021 299.409 1.44021 306.825 1.44021C314.169 1.44021 321.801 1.44021 329.721 1.08021C330.009 4.75221 330.513 9.36021 330.945 12.9602C330.945 13.4642 330.873 13.6802 330.225 13.8242C329.361 13.9682 329.217 13.7522 329.073 13.3202C328.209 10.8002 326.481 7.48821 324.321 5.90421C322.449 4.24821 319.281 3.67221 315.681 3.67221C313.881 3.67221 312.009 3.52821 311.001 5.11221C309.993 6.62421 310.065 9.93621 310.065 14.0402V39.6002C310.065 46.7282 309.993 47.5202 310.857 49.0322C311.649 50.4002 314.097 50.4722 316.689 50.7602C317.193 50.8322 317.337 50.9762 317.337 51.6962C317.337 52.4882 317.193 52.7042 316.689 52.7042C313.665 52.4882 309.633 52.4162 306.753 52.4162C303.801 52.4162 300.057 52.4882 297.321 52.7042C296.817 52.7042 296.673 52.4882 296.673 51.7682C296.673 50.9762 296.817 50.8322 297.321 50.7602C299.697 50.4722 301.785 50.4002 302.577 49.0322C303.441 47.3762 303.369 44.3522 303.369 39.6002Z" fill="#00168B"/>
</svg>
