<svg width="209" height="54" viewBox="0 0 209 54" fill="none" xmlns="http://www.w3.org/2000/svg">
<path d="M11.448 8.78399H10.584L10.872 39.744C10.944 44.28 11.232 47.592 12.168 49.032C13.104 50.472 15.264 50.688 17.64 50.976C18.144 50.976 18.216 51.12 18.216 51.84C18.216 52.56 18.072 52.704 17.64 52.704C14.76 52.56 11.952 52.488 9.36004 52.488C6.69604 52.488 3.45605 52.56 1.00805 52.704C0.432045 52.704 0.288045 52.56 0.288045 51.912C0.288045 51.192 0.432045 51.048 0.936045 50.976C3.09605 50.688 4.96805 50.472 5.90405 48.96C6.91205 47.376 7.27205 44.136 7.34405 39.744L7.77604 14.04C7.84805 9.50399 7.56005 6.69599 6.62405 5.32799C5.68805 4.03199 3.31205 3.52799 0.720045 3.23999C0.144045 3.16799 4.50313e-05 3.02399 4.50313e-05 2.30399C4.50313e-05 1.36799 0.144045 1.15199 0.720045 1.15199C3.16805 1.22399 5.83205 1.36799 7.63205 1.36799C9.57605 1.36799 11.376 1.36799 14.832 1.29599C16.416 4.17599 17.712 6.11999 20.376 10.008L36.792 34.056C39.24 37.584 41.256 40.608 43.488 44.136V35.208L43.416 14.04C43.416 9.93599 42.912 6.55199 41.976 5.03999C41.112 3.59999 38.952 3.45599 36.648 3.16799C36.072 3.09599 35.928 3.02399 35.928 2.23199C35.928 1.29599 36.072 1.15199 36.576 1.15199C39.24 1.29599 42.12 1.43999 44.712 1.43999C47.376 1.43999 50.544 1.29599 52.848 1.15199C53.424 1.15199 53.568 1.29599 53.568 2.23199C53.568 2.95199 53.424 3.09599 52.848 3.16799C50.688 3.45599 48.888 3.59999 48.024 5.03999C47.088 6.62399 46.728 10.008 46.656 14.04L46.224 39.744C46.152 44.568 46.224 48.096 46.368 51.912C42.84 53.856 42.696 53.928 42.48 53.928C42.264 53.928 42.048 53.784 41.904 53.568C39.672 49.896 38.016 47.448 33.696 41.184L11.448 8.78399ZM72.5485 26.928V39.672C72.5485 42.696 72.4765 46.656 73.5565 48.312C74.7085 50.184 77.4445 50.256 80.6845 50.256C87.8125 50.256 90.9805 49.032 93.2125 47.304C95.5165 45.648 97.3165 42.624 98.7565 40.032C98.9725 39.6 99.1165 39.384 99.8365 39.6C100.7 39.888 100.7 40.176 100.556 40.608C99.7645 44.352 98.3245 49.104 96.8125 52.776C90.6205 52.56 84.5005 52.488 78.6685 52.488C72.5485 52.488 65.9245 52.56 59.8045 52.776C59.3725 52.776 59.2285 52.56 59.2285 51.84C59.2285 51.12 59.3725 50.976 59.8045 50.904C62.3245 50.616 64.0525 50.544 64.9165 49.176C65.7805 47.592 65.7805 44.424 65.7805 39.672V14.112C65.7805 7.27199 65.7805 6.40799 64.9885 4.82399C64.1965 3.52799 62.1805 3.45599 59.4445 3.16799C58.9405 3.09599 58.7965 3.02399 58.7965 2.30399C58.7965 1.36799 58.9405 1.15199 59.4445 1.15199C65.4205 1.51199 71.8285 1.51199 77.7325 1.51199C83.4205 1.51199 89.3245 1.51199 95.5165 1.15199C95.8045 4.82399 96.2365 9.21599 96.7405 12.816C96.8125 13.248 96.6685 13.536 96.0925 13.68C95.2285 13.824 95.0125 13.608 94.8685 13.176C94.0045 10.584 92.0605 7.41599 90.1885 6.04799C88.2445 4.31999 85.1485 3.74399 79.4605 3.74399C76.7245 3.74399 74.2765 3.88799 73.2685 5.54399C72.4045 6.98399 72.5485 10.296 72.5485 14.112V24.408C73.7005 24.48 75.4285 24.48 77.0125 24.48C81.5485 24.48 85.0045 24.12 86.3005 22.968C87.9565 21.816 88.3885 20.016 88.6765 18.288C88.7485 17.856 88.8205 17.64 89.5405 17.64C90.4765 17.64 90.5485 17.856 90.5485 18.288C90.4765 20.808 90.4045 23.112 90.4045 25.56C90.4045 28.224 90.4765 31.104 90.5485 33.696C90.5485 34.2 90.4765 34.416 89.5405 34.416C88.8925 34.416 88.7485 34.128 88.6765 33.696C88.3885 32.112 87.8125 29.448 86.1565 28.368C84.8605 27.504 81.4765 26.856 77.0125 26.856C75.4285 26.856 73.7005 26.856 72.5485 26.928ZM143.932 14.04L150.556 35.928C151.924 40.248 152.356 41.904 153.076 44.136C153.652 42.048 154.084 40.104 155.236 35.784L160.996 14.04C161.716 11.232 162.22 8.85599 162.22 7.12799C162.22 6.33599 162.148 5.68799 161.86 5.18399C161.14 3.74399 159.268 3.45599 156.748 3.16799C156.244 3.09599 156.1 3.02399 156.1 2.23199C156.1 1.29599 156.244 1.15199 156.748 1.15199C159.268 1.29599 163.084 1.51199 165.748 1.51199C168.34 1.51199 170.428 1.36799 172.804 1.15199C173.308 1.15199 173.524 1.29599 173.524 2.23199C173.524 3.02399 173.308 3.09599 172.804 3.16799C170.644 3.45599 169.204 3.88799 167.908 5.18399C166.684 6.69599 165.82 9.86399 164.596 14.04L157.036 39.528C155.02 46.44 154.444 48.672 153.508 52.272C150.196 53.784 149.908 53.928 149.692 53.928C149.476 53.928 149.26 53.712 149.188 53.424C148.036 49.32 147.028 45.504 145.228 39.672L139.684 21.312C138.964 18.72 138.46 16.632 137.956 14.832C137.452 16.632 136.876 18.648 136.084 21.096L130.18 39.6C127.948 46.584 127.372 48.888 126.364 52.272C123.124 53.784 122.836 53.928 122.548 53.928C122.332 53.928 122.116 53.784 122.044 53.496C120.964 49.032 119.956 45.216 118.3 39.672L110.884 14.112C109.588 9.71999 108.508 6.47999 107.356 5.03999C106.276 3.74399 105.196 3.45599 102.46 3.16799C101.956 3.09599 101.812 3.02399 101.812 2.30399C101.812 1.29599 101.956 1.15199 102.46 1.15199C105.484 1.36799 108.436 1.51199 111.388 1.51199C114.196 1.51199 118.588 1.36799 121.468 1.15199C121.972 1.15199 122.116 1.29599 122.116 2.23199C122.116 3.02399 121.9 3.09599 121.468 3.16799C119.092 3.45599 116.932 3.52799 116.284 4.96799C115.636 6.55199 116.428 9.57599 117.724 14.112L123.916 35.928C125.212 40.32 125.644 42.12 126.148 44.136C126.796 42.12 127.3 40.32 128.596 36.072L133.708 19.368C135.076 15.048 135.652 12.96 136.372 10.512C135.724 8.56799 135.22 6.40799 134.068 4.96799C132.844 3.59999 131.764 3.38399 129.172 3.16799C128.596 3.09599 128.452 3.02399 128.452 2.23199C128.452 1.29599 128.524 1.15199 129.172 1.15199C132.124 1.36799 135.364 1.51199 138.244 1.51199C141.124 1.51199 144.148 1.36799 146.956 1.15199C147.532 1.15199 147.676 1.29599 147.676 2.23199C147.676 3.02399 147.532 3.09599 146.956 3.16799C144.436 3.45599 143.068 3.52799 142.42 4.96799C141.7 6.55199 142.348 8.63999 143.932 14.04ZM191.655 29.016L188.271 27.288C181.071 23.616 177.111 20.088 177.111 12.816C177.111 5.90399 183.015 -1.04904e-05 192.375 -1.04904e-05C194.607 -1.04904e-05 196.767 0.359989 198.711 1.00799C200.871 1.58399 203.607 1.72799 205.695 1.36799C205.767 4.96799 206.199 9.14399 206.487 12.888C206.487 13.248 206.343 13.464 205.623 13.608C204.975 13.68 204.831 13.464 204.759 13.104C202.383 6.40799 197.919 2.30399 192.519 2.30399C186.975 2.30399 183.519 6.11999 183.519 11.232C183.519 14.76 185.247 17.928 191.583 20.952L195.255 22.68C203.679 26.64 208.647 30.24 208.647 38.664C208.647 47.016 203.175 53.928 190.575 53.928C186.255 53.928 181.647 52.848 177.615 51.408C176.535 47.52 175.743 43.344 175.239 39.816C175.239 39.456 175.311 39.096 175.959 38.952C176.751 38.808 176.967 39.024 177.111 39.384C180.063 46.728 185.535 51.624 191.367 51.624C198.207 51.624 202.167 47.016 202.167 41.472C202.167 35.64 198.711 32.616 191.655 29.016Z" fill="#00168B"/>
</svg>
