<svg width="332" height="52" viewBox="0 0 332 52" fill="none" xmlns="http://www.w3.org/2000/svg">
<path d="M36.864 32.2562L46.008 9.57618C47.232 6.62418 48.24 3.81618 49.32 0.360177C51.768 0.504179 53.712 0.504179 55.944 0.504179C58.176 0.504179 61.416 0.360177 63.72 0.144175C64.296 0.144175 64.44 0.360177 64.44 1.22418C64.44 1.94418 64.296 2.08818 63.72 2.16018C60.984 2.44818 59.328 2.44818 58.392 3.88818C57.384 5.54418 57.384 8.71218 57.456 13.1042L57.744 38.6642C57.888 45.7922 57.96 46.6562 58.824 48.1682C59.616 49.5362 61.632 49.6082 64.368 49.8962C64.872 49.9682 65.088 50.1122 65.088 50.8322C65.088 51.5522 64.872 51.7682 64.368 51.7682C61.272 51.5522 57.24 51.4802 54.432 51.4802C51.48 51.4802 47.952 51.5522 45.072 51.7682C44.712 51.7682 44.568 51.5522 44.568 50.8322C44.568 50.1122 44.712 49.9682 45.072 49.8962C47.664 49.6082 49.536 49.6082 50.328 48.1682C51.264 46.5842 51.264 43.4162 51.192 38.6642L50.976 7.84818H50.184L39.384 33.1202C36.072 40.7522 34.128 45.5042 31.896 50.9042C31.752 51.4802 31.608 51.7682 30.672 51.7682C29.952 51.7682 29.88 51.4802 29.664 50.9042C27.36 45.2882 25.488 40.6802 22.824 34.4882L11.376 7.84818H10.512L10.368 38.6642C10.368 42.9122 10.584 46.5842 11.52 48.0242C12.312 49.3922 14.688 49.6082 16.848 49.8962C17.496 49.9682 17.568 50.1122 17.568 50.8322C17.568 51.5522 17.424 51.7682 16.848 51.7682C14.184 51.5522 11.52 51.4802 8.856 51.4802C6.192 51.4802 3.168 51.5522 0.648002 51.7682C0.144002 51.7682 2.08616e-06 51.5522 2.08616e-06 50.8322C2.08616e-06 50.1122 0.144002 49.9682 0.648002 49.8962C2.592 49.6082 4.608 49.4642 5.472 47.9522C6.552 46.3682 6.912 43.1282 7.056 38.6642L7.632 13.1042C7.776 8.49618 7.776 5.47218 6.84 3.88818C5.832 2.52018 3.6 2.44818 1.152 2.16018C0.648002 2.08818 0.504002 2.01618 0.504002 1.22418C0.504002 0.360177 0.792002 0.144175 1.152 0.144175C3.888 0.360177 6.984 0.504179 9.072 0.504179C11.376 0.504179 13.104 0.504179 15.912 0.360177C16.776 3.24018 17.712 5.83218 18.864 8.56818L28.8 32.1842C30.312 35.6402 31.392 38.3042 32.832 41.9042C34.344 38.4482 35.208 36.0002 36.864 32.2562ZM84.2873 25.9202V38.6642C84.2873 41.6882 84.2153 45.6482 85.2953 47.3042C86.4473 49.1762 89.1833 49.2482 92.4233 49.2482C99.5513 49.2482 102.719 48.0242 104.951 46.2962C107.255 44.6402 109.055 41.6162 110.495 39.0242C110.711 38.5922 110.855 38.3762 111.575 38.5922C112.439 38.8802 112.439 39.1682 112.295 39.6002C111.503 43.3442 110.063 48.0962 108.551 51.7682C102.359 51.5522 96.2393 51.4802 90.4073 51.4802C84.2873 51.4802 77.6633 51.5522 71.5433 51.7682C71.1113 51.7682 70.9673 51.5522 70.9673 50.8322C70.9673 50.1122 71.1113 49.9682 71.5433 49.8962C74.0633 49.6082 75.7913 49.5362 76.6553 48.1682C77.5193 46.5842 77.5193 43.4162 77.5193 38.6642V13.1042C77.5193 6.26418 77.5193 5.40018 76.7273 3.81618C75.9353 2.52018 73.9193 2.44818 71.1833 2.16018C70.6793 2.08818 70.5353 2.01618 70.5353 1.29618C70.5353 0.360177 70.6793 0.144175 71.1833 0.144175C77.1593 0.504179 83.5673 0.504179 89.4713 0.504179C95.1593 0.504179 101.063 0.504179 107.255 0.144175C107.543 3.81618 107.975 8.20818 108.479 11.8082C108.551 12.2402 108.407 12.5282 107.831 12.6722C106.967 12.8162 106.751 12.6002 106.607 12.1682C105.743 9.57618 103.799 6.40818 101.927 5.04018C99.9833 3.31218 96.8873 2.73618 91.1993 2.73618C88.4633 2.73618 86.0153 2.88018 85.0073 4.53618C84.1433 5.97618 84.2873 9.28818 84.2873 13.1042V23.4002C85.4393 23.4722 87.1673 23.4722 88.7513 23.4722C93.2873 23.4722 96.7433 23.1122 98.0393 21.9602C99.6953 20.8082 100.127 19.0082 100.415 17.2802C100.487 16.8482 100.559 16.6322 101.279 16.6322C102.215 16.6322 102.287 16.8482 102.287 17.2802C102.215 19.8002 102.143 22.1042 102.143 24.5522C102.143 27.2162 102.215 30.0962 102.287 32.6882C102.287 33.1922 102.215 33.4082 101.279 33.4082C100.631 33.4082 100.487 33.1202 100.415 32.6882C100.127 31.1042 99.5513 28.4402 97.8953 27.3602C96.5993 26.4962 93.2153 25.8482 88.7513 25.8482C87.1673 25.8482 85.4393 25.8482 84.2873 25.9202ZM153.583 32.2562L162.727 9.57618C163.951 6.62418 164.959 3.81618 166.039 0.360177C168.487 0.504179 170.431 0.504179 172.663 0.504179C174.895 0.504179 178.135 0.360177 180.439 0.144175C181.015 0.144175 181.159 0.360177 181.159 1.22418C181.159 1.94418 181.015 2.08818 180.439 2.16018C177.703 2.44818 176.047 2.44818 175.111 3.88818C174.103 5.54418 174.103 8.71218 174.175 13.1042L174.463 38.6642C174.607 45.7922 174.679 46.6562 175.543 48.1682C176.335 49.5362 178.351 49.6082 181.087 49.8962C181.591 49.9682 181.807 50.1122 181.807 50.8322C181.807 51.5522 181.591 51.7682 181.087 51.7682C177.991 51.5522 173.959 51.4802 171.151 51.4802C168.199 51.4802 164.671 51.5522 161.791 51.7682C161.431 51.7682 161.287 51.5522 161.287 50.8322C161.287 50.1122 161.431 49.9682 161.791 49.8962C164.383 49.6082 166.255 49.6082 167.047 48.1682C167.983 46.5842 167.983 43.4162 167.911 38.6642L167.695 7.84818H166.903L156.103 33.1202C152.791 40.7522 150.847 45.5042 148.615 50.9042C148.471 51.4802 148.327 51.7682 147.391 51.7682C146.671 51.7682 146.599 51.4802 146.383 50.9042C144.079 45.2882 142.207 40.6802 139.543 34.4882L128.095 7.84818H127.231L127.087 38.6642C127.087 42.9122 127.303 46.5842 128.239 48.0242C129.031 49.3922 131.407 49.6082 133.567 49.8962C134.215 49.9682 134.287 50.1122 134.287 50.8322C134.287 51.5522 134.143 51.7682 133.567 51.7682C130.903 51.5522 128.239 51.4802 125.575 51.4802C122.911 51.4802 119.887 51.5522 117.367 51.7682C116.863 51.7682 116.719 51.5522 116.719 50.8322C116.719 50.1122 116.863 49.9682 117.367 49.8962C119.311 49.6082 121.327 49.4642 122.191 47.9522C123.271 46.3682 123.631 43.1282 123.775 38.6642L124.351 13.1042C124.495 8.49618 124.495 5.47218 123.559 3.88818C122.551 2.52018 120.319 2.44818 117.871 2.16018C117.367 2.08818 117.223 2.01618 117.223 1.22418C117.223 0.360177 117.511 0.144175 117.871 0.144175C120.607 0.360177 123.703 0.504179 125.791 0.504179C128.095 0.504179 129.823 0.504179 132.631 0.360177C133.495 3.24018 134.431 5.83218 135.583 8.56818L145.519 32.1842C147.031 35.6402 148.111 38.3042 149.551 41.9042C151.063 38.4482 151.927 36.0002 153.583 32.2562ZM214.254 24.1202V24.5522C224.55 25.6322 230.382 30.1682 230.382 37.5122C230.382 44.5682 225.702 51.9122 209.646 51.9122C205.542 51.9122 200.43 51.4802 197.046 51.4802C194.238 51.4802 190.926 51.5522 188.118 51.7682C187.686 51.7682 187.542 51.5522 187.542 50.8322C187.542 50.1122 187.686 49.9682 188.118 49.8962C190.638 49.6082 192.582 49.6082 193.518 48.0962C194.382 46.5122 194.382 43.4162 194.382 38.6642V13.0322C194.382 6.26418 194.382 5.32818 193.518 3.81618C192.726 2.52018 190.494 2.44818 187.758 2.16018C187.254 2.08818 187.11 2.01618 187.11 1.22418C187.11 0.360177 187.254 0.144175 187.758 0.144175C190.782 0.360177 193.878 0.432176 196.902 0.432176C200.142 0.432176 204.894 0.000176907 208.782 0.000176907C222.822 0.000176907 227.214 4.75218 227.214 11.8082C227.214 16.9922 224.406 21.3842 214.254 24.1202ZM200.934 13.0322V23.4722C202.086 23.5442 203.166 23.5442 204.462 23.5442C216.774 23.5442 219.942 18.4322 219.942 12.3842C219.942 5.90418 215.55 2.44818 207.918 2.44818C205.326 2.44818 202.734 2.52018 201.798 4.03218C200.862 5.47218 200.934 8.64018 200.934 13.0322ZM200.934 25.9922V38.6642C200.934 42.5522 200.862 45.7922 202.014 47.5202C203.094 49.3202 205.974 49.5362 209.286 49.5362C220.158 49.5362 222.822 42.8402 222.822 37.5842C222.822 33.0482 221.454 25.9202 205.398 25.9202C204.102 25.9202 202.806 25.9202 200.934 25.9922ZM250.717 25.9202V38.6642C250.717 41.6882 250.645 45.6482 251.725 47.3042C252.877 49.1762 255.613 49.2482 258.853 49.2482C265.981 49.2482 269.149 48.0242 271.381 46.2962C273.685 44.6402 275.485 41.6162 276.925 39.0242C277.141 38.5922 277.285 38.3762 278.005 38.5922C278.869 38.8802 278.869 39.1682 278.725 39.6002C277.933 43.3442 276.493 48.0962 274.981 51.7682C268.789 51.5522 262.669 51.4802 256.837 51.4802C250.717 51.4802 244.093 51.5522 237.973 51.7682C237.541 51.7682 237.397 51.5522 237.397 50.8322C237.397 50.1122 237.541 49.9682 237.973 49.8962C240.493 49.6082 242.221 49.5362 243.085 48.1682C243.949 46.5842 243.949 43.4162 243.949 38.6642V13.1042C243.949 6.26418 243.949 5.40018 243.157 3.81618C242.365 2.52018 240.349 2.44818 237.613 2.16018C237.109 2.08818 236.965 2.01618 236.965 1.29618C236.965 0.360177 237.109 0.144175 237.613 0.144175C243.589 0.504179 249.997 0.504179 255.901 0.504179C261.589 0.504179 267.493 0.504179 273.685 0.144175C273.973 3.81618 274.405 8.20818 274.909 11.8082C274.981 12.2402 274.837 12.5282 274.261 12.6722C273.397 12.8162 273.181 12.6002 273.037 12.1682C272.173 9.57618 270.229 6.40818 268.357 5.04018C266.413 3.31218 263.317 2.73618 257.629 2.73618C254.893 2.73618 252.445 2.88018 251.437 4.53618C250.573 5.97618 250.717 9.28818 250.717 13.1042V23.4002C251.869 23.4722 253.597 23.4722 255.181 23.4722C259.717 23.4722 263.173 23.1122 264.469 21.9602C266.125 20.8082 266.557 19.0082 266.845 17.2802C266.917 16.8482 266.989 16.6322 267.709 16.6322C268.645 16.6322 268.717 16.8482 268.717 17.2802C268.645 19.8002 268.573 22.1042 268.573 24.5522C268.573 27.2162 268.645 30.0962 268.717 32.6882C268.717 33.1922 268.645 33.4082 267.709 33.4082C267.061 33.4082 266.917 33.1202 266.845 32.6882C266.557 31.1042 265.981 28.4402 264.325 27.3602C263.029 26.4962 259.645 25.8482 255.181 25.8482C253.597 25.8482 251.869 25.8482 250.717 25.9202ZM297.188 27.0002V38.5922C297.188 45.7202 297.26 46.7282 297.98 48.1682C298.844 49.6082 300.86 49.6082 303.524 49.8962C304.1 49.9682 304.244 50.1122 304.244 50.9042C304.244 51.5522 304.1 51.7682 303.524 51.7682C300.428 51.6242 296.9 51.4802 293.948 51.4802C291.068 51.4802 287.396 51.6242 284.588 51.7682C284.012 51.7682 283.868 51.5522 283.868 50.9042C283.868 50.1122 284.012 49.9682 284.588 49.8962C287.036 49.6082 289.052 49.5362 289.844 48.1682C290.708 46.5842 290.708 43.3442 290.708 38.5922V13.0322C290.708 6.19218 290.708 5.40018 289.916 3.88818C289.124 2.44818 286.604 2.37618 283.868 2.08818C283.436 2.01618 283.292 1.94418 283.292 1.22418C283.292 0.288177 283.436 0.144175 283.868 0.144175C286.964 0.288177 290.708 0.432176 293.588 0.432176C296.18 0.432176 300.716 0.072176 305.396 0.072176C318.572 0.072176 323.828 5.83218 323.828 13.1762C323.828 18.5042 320.372 23.7602 312.236 25.9922C315.116 31.5362 318.428 37.4402 322.244 43.4882C323.828 46.0802 325.124 48.0242 326.564 48.8882C327.788 49.5362 329.084 49.6802 330.956 49.8962C331.388 49.9682 331.532 50.1122 331.532 50.8322C331.532 51.6242 331.316 51.7682 330.884 51.7682C328.22 51.6242 326.132 51.4802 324.044 51.4802C322.172 51.4802 320.804 51.4802 318.644 51.5522C317.924 49.7522 316.988 47.8082 315.98 46.0082C312.452 39.6722 308.996 33.4082 305.54 27.0722C304.676 27.1442 303.38 27.2162 302.372 27.2162C300.572 27.2162 298.916 27.1442 297.188 27.0002ZM297.188 13.0322V24.5522C298.772 24.7682 300.572 24.9122 302.372 24.9122C312.596 24.9122 316.412 19.8002 316.412 13.6082C316.412 6.55218 312.524 2.52018 303.884 2.52018C301.508 2.52018 299.06 2.44818 298.124 3.88818C297.116 5.32818 297.188 9.07218 297.188 13.0322Z" fill="#00168B"/>
</svg>
