<svg width="96" height="52" viewBox="0 0 96 52" fill="none" xmlns="http://www.w3.org/2000/svg">
<path d="M14.04 27.8639V38.5919C14.04 45.7199 14.04 46.7279 14.76 48.0239C15.552 49.4639 17.856 49.5359 20.592 49.8239C21.168 49.8959 21.312 50.0399 21.312 50.7599C21.312 51.4799 21.168 51.6959 20.592 51.6959C17.496 51.4799 13.752 51.4079 10.872 51.4079C7.84796 51.4079 4.03196 51.4799 1.22396 51.6959C0.719959 51.6959 0.647959 51.6239 0.647959 50.7599C0.647959 49.9679 0.791959 49.8959 1.22396 49.8239C3.81596 49.6079 5.68796 49.5359 6.55196 48.0239C7.34396 46.4399 7.34396 43.3439 7.34396 38.5919V13.0319C7.34396 6.19191 7.34396 5.39991 6.62396 3.81591C5.83196 2.44791 3.31196 2.37591 0.647959 2.08791C0.143959 2.01591 -4.0859e-05 1.94391 -4.0859e-05 1.15191C-4.0859e-05 0.287911 0.143959 0.0719094 0.647959 0.0719094C3.67196 0.287911 7.63196 0.431913 10.584 0.431913C13.32 0.431913 17.784 -8.96454e-05 22.464 -8.96454e-05C36.648 -8.96454e-05 41.544 5.54391 41.544 13.5359C41.544 21.1679 36.864 28.1519 19.656 28.1519C17.784 28.1519 15.696 28.0799 14.04 27.8639ZM14.04 12.9599V25.2719C15.624 25.5599 17.352 25.7039 19.368 25.7039C30.168 25.7039 34.128 20.3759 34.128 13.8239C34.128 6.33591 29.232 2.44791 20.952 2.44791C18.792 2.44791 15.984 2.59191 15.048 3.95991C13.968 5.47191 14.04 9.07191 14.04 12.9599ZM61.6381 26.9279V38.5199C61.6381 45.6479 61.7101 46.6559 62.4301 48.0959C63.2941 49.5359 65.3101 49.5359 67.9741 49.8239C68.5501 49.8959 68.6941 50.0399 68.6941 50.8319C68.6941 51.4799 68.5501 51.6959 67.9741 51.6959C64.8781 51.5519 61.3501 51.4079 58.3981 51.4079C55.5181 51.4079 51.8461 51.5519 49.0381 51.6959C48.4621 51.6959 48.3181 51.4799 48.3181 50.8319C48.3181 50.0399 48.4621 49.8959 49.0381 49.8239C51.4861 49.5359 53.5021 49.4639 54.2941 48.0959C55.1581 46.5119 55.1581 43.2719 55.1581 38.5199V12.9599C55.1581 6.11991 55.1581 5.32791 54.3661 3.81591C53.5741 2.37591 51.0541 2.30391 48.3181 2.01591C47.8861 1.94391 47.7421 1.87191 47.7421 1.15191C47.7421 0.215912 47.8861 0.0719094 48.3181 0.0719094C51.4141 0.215912 55.1581 0.35991 58.0381 0.35991C60.6301 0.35991 65.1661 -8.96454e-05 69.8461 -8.96454e-05C83.0221 -8.96454e-05 88.2781 5.75991 88.2781 13.1039C88.2781 18.4319 84.8221 23.6879 76.6861 25.9199C79.5661 31.4639 82.8781 37.3679 86.6941 43.4159C88.2781 46.0079 89.5741 47.9519 91.0141 48.8159C92.2381 49.4639 93.5342 49.6079 95.4061 49.8239C95.8382 49.8959 95.9821 50.0399 95.9821 50.7599C95.9821 51.5519 95.7661 51.6959 95.3341 51.6959C92.6701 51.5519 90.5821 51.4079 88.4942 51.4079C86.6221 51.4079 85.2541 51.4079 83.0941 51.4799C82.3741 49.6799 81.4381 47.7359 80.4301 45.9359C76.9021 39.5999 73.4461 33.3359 69.9901 26.9999C69.1261 27.0719 67.8301 27.1439 66.8221 27.1439C65.0221 27.1439 63.3661 27.0719 61.6381 26.9279ZM61.6381 12.9599V24.4799C63.2221 24.6959 65.0221 24.8399 66.8221 24.8399C77.0461 24.8399 80.8621 19.7279 80.8621 13.5359C80.8621 6.47991 76.9741 2.44791 68.3341 2.44791C65.9581 2.44791 63.5101 2.37591 62.5741 3.81591C61.5661 5.25591 61.6381 8.99991 61.6381 12.9599Z" fill="#00168B"/>
</svg>
